<svg width="180" height="180" viewBox="0 0 180 180" fill="none" xmlns="http://www.w3.org/2000/svg">
<rect width="180" height="180" fill="white" style="mix-blend-mode:multiply"/>
<path d="M24.525 174.375H20.475V159.525H5.625V155.475H20.475V140.625H24.525V155.475H39.375V159.531H24.525V174.375ZM146.25 159.525H56.25V155.475H146.25C151.335 155.475 155.475 151.341 155.475 146.25V56.25H159.531V146.25C159.525 153.574 153.574 159.525 146.25 159.525ZM24.525 123.75H20.475V33.75C20.475 26.4319 26.4319 20.475 33.75 20.475H123.75V24.525H33.75C28.665 24.525 24.525 28.665 24.525 33.75V123.75ZM90 122.974C89.4825 122.974 88.965 122.777 88.5713 122.383L57.8475 91.7156C53.9775 87.8794 51.84 82.7775 51.84 77.3438C51.84 71.91 53.9775 66.8081 57.8531 62.9719C65.9137 54.99 78.5362 55.0012 86.5856 62.9719L90 66.3525L93.4144 62.9719C101.469 55.0012 114.092 54.9956 122.141 62.9719C126.017 66.8081 128.154 71.9156 128.154 77.3438C128.154 82.7775 126.017 87.885 122.141 91.7213L91.4287 122.383C91.035 122.777 90.5175 122.974 90 122.974ZM72.2194 61.0537C68.0737 61.0537 63.9338 62.6512 60.705 65.8519C57.6 68.9231 55.8956 73.0069 55.8956 77.3438C55.8956 81.6862 57.6056 85.77 60.705 88.8412C60.705 88.8412 60.705 88.8412 60.7106 88.8469L90 118.086L119.295 88.8469C122.406 85.77 124.11 81.6862 124.11 77.3438C124.11 73.0069 122.4 68.9175 119.301 65.8519C112.843 59.4562 102.724 59.4562 96.2606 65.8519L91.4231 70.6387C90.6356 71.4206 89.3644 71.4206 88.5769 70.6387L83.7337 65.8519C80.505 62.6569 76.365 61.0537 72.2194 61.0537ZM159.525 39.375H155.475V24.525H140.625V20.475H155.475V5.625H159.531V20.475H174.375V24.525H159.525V39.375Z" fill="#005CB8"/>
</svg>
