<?xml version="1.0" encoding="utf-8"?>
<!-- Generator: Adobe Illustrator 27.9.4, SVG Export Plug-In . SVG Version: 9.03 Build 54784)  -->
<svg version="1.1" id="Layer_1" xmlns="http://www.w3.org/2000/svg" xmlns:xlink="http://www.w3.org/1999/xlink" x="0px" y="0px"
	 viewBox="0 0 858.5 833.8" style="enable-background:new 0 0 858.5 833.8;" xml:space="preserve">
<style type="text/css">
	.st0{fill:#FFFFFF;enable-background:new    ;}
	.st1{opacity:0.5;fill:#5CADFF;enable-background:new    ;}
	.st2{fill:#FFFFFF;stroke:#5CADFF;stroke-width:9;stroke-linecap:round;stroke-linejoin:round;stroke-miterlimit:10;}
	.st3{fill:none;stroke:#00478F;stroke-width:9;stroke-linecap:round;stroke-miterlimit:10;}
	.st4{fill:#FFF3CC;}
	.st5{fill:none;stroke:#5CADFF;stroke-width:9;stroke-linecap:round;stroke-miterlimit:10;}
	.st6{fill:#FFF3CC;stroke:#5CADFF;stroke-width:6;stroke-miterlimit:10;}
	.st7{fill:#FFFFFF;}
	.st8{opacity:0.5;}
	.st9{fill:#5CADFF;stroke:#5CADFF;stroke-width:7;stroke-linecap:round;stroke-miterlimit:10;}
	.st10{fill:none;stroke:#5CADFF;stroke-width:7;stroke-linecap:round;stroke-miterlimit:10;}
	.st11{fill:#FFF3CC;stroke:#5CADFF;stroke-width:9;stroke-linecap:round;stroke-miterlimit:10;}
	.st12{opacity:0.5;fill:#FFFFFF;enable-background:new    ;}
	.st13{fill:none;stroke:#5CADFF;stroke-width:9;stroke-linecap:round;stroke-linejoin:round;stroke-miterlimit:10;}
	.st14{opacity:0.25;fill:#00478F;enable-background:new    ;}
	.st15{fill:none;stroke:#00478F;stroke-width:9;stroke-linecap:round;stroke-linejoin:round;stroke-miterlimit:10;}
	.st16{fill:none;stroke:#00478F;stroke-width:9;stroke-miterlimit:10;}
	.st17{fill:#FF9A68;}
	.st18{opacity:0.1;enable-background:new    ;}
	.st19{fill:#CC4502;}
	.st20{opacity:0.5;fill:#CC4502;enable-background:new    ;}
	.st21{fill:none;stroke:#000000;stroke-width:9;stroke-miterlimit:10;}
	.st22{fill:none;stroke:#000000;stroke-width:5;stroke-linecap:round;stroke-miterlimit:10;}
	.st23{fill:#00478F;}
	.st24{fill:#5CADFF;}
	.st25{opacity:0.5;fill:#FF9A68;enable-background:new    ;}
	.st26{fill:none;stroke:#FFFFFF;stroke-width:5;stroke-linecap:round;stroke-miterlimit:10;}
</style>
<path class="st0" d="M9,171.9c0,39,31.6,70.6,70.6,70.6c14.6,0,28.1-4.4,39.3-12c4.9,14.9,12.8,29.5,27.5,34.8
	c5.3,1.9,11.1,2.9,17.1,2.9c23.1,0,46.2-18.2,52.3-39.4c1.2,0.1,2.4,0.1,3.7,0.1c39,0,70.6-31.6,70.6-70.6c0-31.4-20.5-58-48.8-67.2
	c-2.6-48.3-42.6-86.6-91.5-86.6c-50.6,0-91.6,41-91.6,91.6c0,2.8,0.1,5.5,0.4,8.2C29.9,113.3,9,140.2,9,171.9z"/>
<ellipse class="st0" cx="545.3" cy="787.4" rx="25.3" ry="9"/>
<path class="st0" d="M510.1,500.4c-64.7,0-124.5,9-173.3,24.4c-19.3-21.7-75.3-37.4-141.3-37.4c-82,0-148.5,24.2-148.5,54
	c0,29.8,66.5,54,148.5,54c10,0,19.8-0.4,29.3-1.1c-7.4,11.3-11.3,23.2-11.3,35.5c0,9.1,2.2,18,6.3,26.6
	C143.5,670.3,90,703.2,90,741.5c0,51,94.6,92.3,211.4,92.3c102.8,0,188.4-32,207.4-74.5c0.5,0,0.9,0,1.4,0
	c163.8,0,296.6-58,296.6-129.5S674,500.4,510.1,500.4z M296.9,824.3c-7.9,0-14.3-2.5-14.3-5.7s6.4-5.7,14.3-5.7s14.3,2.5,14.3,5.7
	S304.8,824.3,296.9,824.3z M559.3,738.1c-16.4,0-29.6-5.3-29.6-11.7c0-6.5,13.3-11.7,29.6-11.7c16.4,0,29.6,5.3,29.6,11.7
	C589,732.8,575.7,738.1,559.3,738.1z M616.1,720.5c-7.9,0-14.3-2.5-14.3-5.7c0-3.1,6.4-5.7,14.3-5.7c7.9,0,14.3,2.5,14.3,5.7
	C630.4,718,624,720.5,616.1,720.5z"/>
<ellipse class="st1" cx="545.3" cy="787.4" rx="25.3" ry="9"/>
<path class="st1" d="M510.1,500.4c-64.7,0-124.5,9-173.3,24.4c-19.3-21.7-75.3-37.4-141.3-37.4c-82,0-148.5,24.2-148.5,54
	c0,29.8,66.5,54,148.5,54c10,0,19.8-0.4,29.3-1.1c-7.4,11.3-11.3,23.2-11.3,35.5c0,9.1,2.2,18,6.3,26.6
	C143.5,670.3,90,703.2,90,741.5c0,51,94.6,92.3,211.4,92.3c102.8,0,188.4-32,207.4-74.5c0.5,0,0.9,0,1.4,0
	c163.8,0,296.6-58,296.6-129.5S674,500.4,510.1,500.4z M296.9,824.3c-7.9,0-14.3-2.5-14.3-5.7s6.4-5.7,14.3-5.7s14.3,2.5,14.3,5.7
	S304.8,824.3,296.9,824.3z M559.3,738.1c-16.4,0-29.6-5.3-29.6-11.7c0-6.5,13.3-11.7,29.6-11.7c16.4,0,29.6,5.3,29.6,11.7
	C589,732.8,575.7,738.1,559.3,738.1z M616.1,720.5c-7.9,0-14.3-2.5-14.3-5.7c0-3.1,6.4-5.7,14.3-5.7c7.9,0,14.3,2.5,14.3,5.7
	C630.4,718,624,720.5,616.1,720.5z"/>
<g>
	<path class="st2" d="M698,49c0,0,223.1,135.9,115.5,268.4c-87.6,107.8-185,18.2-185-48.2S706.7,164.5,698,49z"/>
	<polyline class="st3" points="671.1,436.8 735.8,436.8 800.5,436.8 	"/>
	<line class="st3" x1="735.8" y1="436.8" x2="735.8" y2="169.3"/>
	<line class="st3" x1="735.6" y1="281.1" x2="683" y2="228.6"/>
	<line class="st3" x1="735.9" y1="311.9" x2="788.5" y2="259.4"/>
	<path class="st1" d="M697.2,45.4c0,0,228.3,139,118.1,274.6C725.7,430.2,626,338.5,626,270.7S706,163.5,697.2,45.4z"/>
</g>
<rect x="264.5" y="314.4" class="st4" width="330" height="210"/>
<g>
	<path class="st5" d="M74.5,807.9c0,0,0-57.7,0-72.9c0-24.1-14-18.1-14-18.1"/>
	<line class="st5" x1="91.5" y1="807.9" x2="91.5" y2="767.4"/>
	<path class="st5" d="M117,764.3c-1.4-5.7-6.5-9.9-12.6-9.9s-11.2,4.2-12.6,9.9c-0.2,1-0.4,2-0.4,3.1"/>
	<line class="st5" x1="58" y1="776.1" x2="58" y2="807.9"/>
	<path class="st5" d="M58,776.1c0-0.8-0.1-1.6-0.3-2.4c-1.1-4.4-5.1-7.7-9.9-7.7s-8.8,3.3-9.9,7.7"/>
</g>
<g>
	<line class="st5" x1="782.5" y1="711.4" x2="782.5" y2="672.9"/>
	<path class="st5" d="M782.5,710.9c0,0,0-27.7,0-42.9"/>
	<path class="st6" d="M803.6,682.1c-22.2-1.3-38.4-37.6,30.1-48.8C833.7,633.3,832.2,683.7,803.6,682.1z"/>
	<path class="st6" d="M766.1,685.1c17.3-1.4,29.3-30.2-24.5-37.6C741.6,647.5,743.8,687,766.1,685.1z"/>
</g>
<g>
	<g>
		<ellipse class="st7" cx="48.5" cy="608.4" rx="27" ry="17.5"/>
	</g>
	<g class="st8">
		<ellipse class="st9" cx="48.5" cy="608.4" rx="27" ry="17.5"/>
	</g>
	<path class="st10" d="M70.2,604.4c0,0,2.9,15.3-23.5,15.7"/>
</g>
<g>
	<path class="st5" d="M683.7,778.2c0,0,0-27.7,0-42.9"/>
	<circle class="st11" cx="684.1" cy="727" r="17.5"/>
</g>
<g>
	<path class="st5" d="M168.7,687.2c0,0,0-27.7,0-42.9"/>
	<circle class="st11" cx="169.1" cy="636" r="17.5"/>
</g>
<g>
	<path class="st12" d="M9,171.9c0,39,31.6,70.6,70.6,70.6c14.6,0,28.1-4.4,39.3-12c4.9,14.9,12.7,25.9,27.4,31.2
		c5.3,1.9,20.1,3.2,26.1,3.2c23.1,0,37.3-14.9,43.4-36.1c1.2,0.1,2.4,0.1,3.7,0.1c39,0,70.6-31.6,70.6-70.6
		c0-31.4-20.5-58-48.8-67.2c-2.6-48.3-42.6-86.6-91.5-86.6c-50.6,0-91.6,41-91.6,91.6c0,2.8,0.1,5.5,0.4,8.2
		C29.9,113.3,9,140.2,9,171.9z"/>
	<path class="st13" d="M9,171.9c0,39,31.6,70.6,70.6,70.6c14.6,0,28.1-4.4,39.3-12c4.9,14.9,16.4,26.7,31.1,32
		c5.3,1.9,11.1,2.9,17.1,2.9c23.1,0,42.6-15.5,48.7-36.6c1.2,0.1,2.4,0.1,3.7,0.1c39,0,70.6-31.6,70.6-70.6
		c0-31.4-20.5-58-48.8-67.2c-2.6-48.3-42.6-86.6-91.5-86.6c-50.6,0-91.6,41-91.6,91.6c0,2.8,0.1,5.5,0.4,8.2
		C29.9,113.3,9,140.2,9,171.9z"/>
	<ellipse class="st14" cx="154.7" cy="351.6" rx="102.3" ry="26.7"/>
	<polyline class="st3" points="207.4,352 156.7,352 105.9,352 	"/>
	<line class="st15" x1="156.7" y1="216.6" x2="156.7" y2="352"/>
	<line class="st3" x1="155.5" y1="216.8" x2="98.6" y2="159.9"/>
	<line class="st3" x1="158" y1="216.8" x2="214.9" y2="159.9"/>
	<path class="st1" d="M9,171.9c0,39,31.6,70.6,70.6,70.6c14.6,0,28.1-4.4,39.3-12c4.9,14.9,14.6,31,29.2,36.2
		c5.3,1.9,11.1,2.9,17.1,2.9c23.1,0,44.4-19.6,50.6-40.9c1.2,0.1,2.4,0.1,3.7,0.1c39,0,70.6-31.6,70.6-70.6
		c0-31.4-20.5-58-48.8-67.2c-2.6-48.3-42.6-86.6-91.5-86.6c-50.6,0-91.6,41-91.6,91.6c0,2.8,0.1,5.5,0.4,8.2
		C29.9,113.3,9,140.2,9,171.9z"/>
</g>
<rect x="599.5" y="189.4" class="st4" width="39" height="350"/>
<rect x="221.5" y="189.4" class="st4" width="39" height="350"/>
<rect x="221.5" y="184.9" class="st3" width="39" height="354"/>
<rect x="599.5" y="184.9" class="st3" width="39" height="354"/>
<rect x="260.5" y="310.9" class="st3" width="339" height="212"/>
<rect x="641" y="314.4" class="st4" width="209.8" height="210"/>
<rect x="638.5" y="310.9" class="st3" width="215.5" height="212"/>
<rect x="7" y="311.4" class="st4" width="209.8" height="210"/>
<rect x="4.5" y="310.9" class="st3" width="215.5" height="212"/>
<line class="st3" x1="260.5" y1="272.3" x2="599.5" y2="272.3"/>
<line class="st3" x1="260.5" y1="232.9" x2="599.5" y2="232.9"/>
<g>
	<line class="st16" x1="534" y1="220.4" x2="508.5" y2="245.9"/>
	<line class="st16" x1="508.5" y1="220.4" x2="534" y2="245.9"/>
</g>
<g>
	<line class="st16" x1="443" y1="220.4" x2="417.5" y2="245.9"/>
	<line class="st16" x1="417.5" y1="220.4" x2="443" y2="245.9"/>
</g>
<g>
	<line class="st16" x1="352" y1="220.4" x2="326.5" y2="245.9"/>
	<line class="st16" x1="326.5" y1="220.4" x2="352" y2="245.9"/>
</g>
<g>
	<line class="st16" x1="396" y1="259.4" x2="370.5" y2="284.9"/>
	<line class="st16" x1="370.5" y1="259.4" x2="396" y2="284.9"/>
</g>
<g>
	<line class="st16" x1="491" y1="259.4" x2="465.5" y2="284.9"/>
	<line class="st16" x1="465.5" y1="259.4" x2="491" y2="284.9"/>
</g>
<rect x="48" y="372.4" class="st17" width="39" height="19.5"/>
<rect x="144" y="484.4" class="st17" width="39" height="19.5"/>
<rect x="678" y="336.4" class="st17" width="39" height="19.5"/>
<rect x="773" y="484.4" class="st17" width="39" height="19.5"/>
<rect x="793" y="446.4" class="st17" width="39" height="19.5"/>
<rect x="658" y="405.4" class="st17" width="39" height="19.5"/>
<rect x="296" y="342.4" class="st17" width="39" height="19.5"/>
<rect x="28" y="334.4" class="st17" width="39" height="19.5"/>
<rect x="643" y="315.4" class="st17" width="15" height="203"/>
<rect x="201" y="315.4" class="st17" width="15" height="203"/>
<path class="st18" d="M278,562.8l1.3,2.9C278.3,564.2,278,563,278,562.8z"/>
<g>
	<g>
		<ellipse class="st14" cx="421.7" cy="690.6" rx="121.4" ry="22.1"/>
	</g>
</g>
<g>
	<path class="st17" d="M297.8,554.5c-1.3,23.5,2.8,45.2,12,64.5c9.7,20.3,25.4,38.3,45.5,52c16.5,11.3,31.4,16.8,38,18.4
		c0.1,0,0.3,0.1,0.4,0.1l1,0.2c13.8,3,55.3,9,94-15.3c0.3-0.2,0.6-0.4,0.9-0.6c2.3-1.4,4.5-3,6.8-4.7c13.3-9.9,24.6-22.6,34.1-38.1
		c19.1-31.2,30.6-73.8,34.3-127.2c0.1-0.9-0.6-1.6-1.4-1.7c-0.1,0-0.5,0-1.1-0.1c-1.5-0.1-4.6-0.1-8.6,0.5c-0.5,0.1-1,0.2-1.5,0.2
		v-0.1c0-0.2,0-0.4,0-0.6c0-0.5-0.1-0.9-0.1-1.4c0-0.6-0.1-1.3-0.2-1.9c-0.1-0.4-0.1-0.9-0.2-1.3c-0.1-0.5-0.2-1-0.2-1.5
		c-0.3-2-0.8-4-1.3-6c-0.3-1.1-0.6-2.2-1-3.3c-0.1-0.4-0.3-0.9-0.5-1.3c-0.5-1-1.5-1.7-2.4-2.1c-1.9-0.8-4.2-0.8-6.6-0.2
		c5.1-24,3.7-40.7-4.1-49.7c-0.4-0.4-1-0.6-1.6-0.5c-0.2,0-4.8,1.1-10.8,4.9c-0.4,0.3-0.9,0.6-1.3,1c-0.3,0.2-0.6,0.5-1,0.8
		c-0.7,0.6-1.4,1.2-2.1,1.9c-0.2,0.2-0.5,0.5-0.7,0.7c-0.9,0.9-1.9,1.9-2.8,2.9c0.2-0.7,0.4-1.3,0.7-2c0.1-0.4,0.3-0.8,0.4-1.2v-0.1
		c0-0.1,0.1-0.2,0.1-0.3c0-0.1,0.1-0.2,0.1-0.3c0.4-1.4,0.7-2.9,1-4.3c0.1-0.4,0.1-0.7,0.2-1.1c0.1-0.5,0.2-1.1,0.3-1.6
		c0.1-0.4,0.1-0.8,0.2-1.2c0.2-1.2,0.3-2.5,0.4-3.7c0.2-2.9,0.2-5.8,0-8.8c0-0.6-0.1-1.2-0.1-1.8c0-0.6-0.1-1.3-0.2-1.9
		c-0.1-0.5-0.1-0.9-0.2-1.4c-0.1-0.6-0.2-1.3-0.3-1.9c-0.1-0.4-0.1-0.9-0.2-1.3c-0.2-1.1-0.4-2.2-0.7-3.4c-0.1-0.5-0.2-0.9-0.3-1.4
		s-0.2-0.9-0.4-1.4c-0.1-0.3-0.2-0.7-0.3-1.1c-0.3-1.1-0.6-2.2-1-3.2c-0.2-0.4-0.3-0.9-0.5-1.3c-0.6-1.7-1.3-3.4-2-5
		c-0.2-0.5-0.4-0.9-0.6-1.4c-0.1-0.3-0.3-0.6-0.4-0.8c-0.1-0.3-0.3-0.6-0.4-0.8c-0.1-0.3-0.3-0.6-0.4-0.9c-1.1-2.2-2.7-4.9-3.8-6.9
		c-0.3-0.5-0.8-0.8-1.4-0.8c-0.1,0-0.2,0-0.3,0c-0.2,0-0.4,0-0.5,0s-0.2,0-0.3,0c-0.3,0-0.5,0.1-0.8,0.1c-0.5,0.1-1,0.2-1.5,0.3
		c-0.2,0-0.5,0.1-0.7,0.2c-5.3,1.6-10.1,4.2-14.5,7.5c-1.9-5.8-8.9-24.9-18.4-32.7c-2-1.6-4.3-2.2-6.7-1.6c-0.3,0.1-0.7,0.2-1.1,0.3
		c-0.2,0.1-0.4,0.1-0.5,0.2c-0.2,0.1-0.4,0.2-0.6,0.2c-1,0.4-1.9,1-2.9,1.7c-0.3,0.2-0.6,0.5-1,0.7c-0.3,0.3-0.7,0.5-1,0.8
		c-0.9,0.8-1.8,1.7-2.7,2.7c-0.2,0.2-0.4,0.4-0.6,0.6c-0.4,0.4-0.7,0.8-1.1,1.3c-0.1,0.1-0.2,0.2-0.3,0.3c-0.5,0.6-1,1.2-1.4,1.8
		c-0.2,0.2-0.4,0.5-0.6,0.8s-0.4,0.5-0.6,0.8c-0.6,0.8-1.2,1.6-1.8,2.5c-3.3,4.9-5.9,9.6-6.9,11.6c-5.7-5.9-12.2-10.7-19.5-13.9
		c-0.3-0.1-0.7-0.2-1.1-0.1c-0.1,0-0.2,0.1-0.3,0.1c0,0-0.1,0-0.1,0.1c-0.1,0-0.1,0.1-0.2,0.1s-0.1,0.1-0.2,0.1
		c-0.1,0.1-0.2,0.2-0.3,0.4c-0.3,0.3-0.7,0.7-1,1.1c-1.3,1.4-2.5,2.9-3.8,4.4c-1.4,1.7-3.4,4.2-4.8,6.1c-0.5,0.6-0.9,1.3-1.4,1.9
		c-0.2,0.2-0.3,0.5-0.5,0.7c-0.1,0.1-0.2,0.3-0.3,0.4c-0.3,0.5-0.6,0.9-0.9,1.4l0,0c-1.7,2.4-3.2,4.8-4.7,7.3
		c-0.4,0.7-0.8,1.3-1.2,2c-0.1,0.2-0.2,0.4-0.3,0.6c-0.4,0.6-0.7,1.3-1.1,1.9c0,0.1-0.1,0.1-0.1,0.2c-0.4,0.6-0.7,1.3-1,1.9
		c-0.1,0.1-0.2,0.3-0.2,0.4c-0.9,1.6-1.7,3.3-2.5,5l0,0c-0.8,1.7-1.5,3.4-2.2,5.1s-1.4,3.4-2,5.2c-0.6,1.7-1.2,3.5-1.7,5.3
		c-1-0.6-2.1-1.1-3.2-1.6c-0.5-0.3-1.2-0.2-1.6,0.2c-0.1,0-0.1,0.1-0.2,0.1l-0.8,1l0,0l-0.6,0.7l-0.1,0.1c-0.2,0.3-0.5,0.6-0.7,1
		c-5.6-7.4-9.7-11.1-13.4-11.8c-0.4-0.1-0.9,0-1.2,0.3c-0.2,0.2-6,4.3-12.2,13.4c-0.1,0.1-0.1,0.1-0.1,0.2
		c-5.5,8.2-12.4,22-14.4,42.1c-0.3-0.2-0.7-0.4-1-0.6c-1.7-0.9-3.3-1.5-4.8-2c-1-0.3-1.9-0.5-2.7-0.6c-2.7-0.5-4.6-0.3-4.8-0.2
		c-0.5,0.1-0.9,0.3-1.2,0.8c0,0,0,0.1-0.1,0.1C308,496.8,299.3,527.1,297.8,554.5z"/>
	<path class="st19" d="M546,486.4c0,0.1,0,0.1,0.1,0.2c0,0.1,0.1,0.1,0.1,0.2L546,486.4z"/>
	<path class="st19" d="M503.8,386c0,0,0.2,0.4,0.5,0.9c0.3,0,0.6-0.1,0.9-0.1L503.8,386z"/>
	<path class="st19" d="M417.8,372.8c0.4,0.1,0.7,0.3,1,0.5c0.2-0.3,0.5-0.6,0.7-0.8L417.8,372.8z"/>
	<path class="st19" d="M297.8,554.5c-1.3,23.5,2.8,45.2,12,64.5c9.7,20.3,25.4,38.3,45.5,52c16.5,11.3,31.4,16.8,38,18.4
		c0.1,0,0.3,0.1,0.4,0.1l1,0.2c13.8,3,55.3,9,94-15.3c0.3-0.2,0.6-0.4,0.9-0.6c2.3-1.4,4.5-3,6.8-4.7c13.3-9.9,24.6-22.6,34.1-38.1
		c19.1-31.2,30.6-73.8,34.3-127.2c0.1-0.9-0.6-1.6-1.4-1.7c-0.1,0-0.5,0-1.1-0.1c-1.5-0.1-4.6-0.1-8.6,0.5c-0.5,0.1-1,0.2-1.5,0.2
		c0,0.2,0,0.4,0,0.6c0-0.2,0-0.4,0-0.6c-0.3,0.1-0.6,0.1-0.9,0.2c-0.9,0.2-1.5,1-1.3,1.9s1,1.5,1.9,1.3c0.1,0,0.1,0,0.2,0
		c-0.1,0-0.1,0-0.2,0c-0.9,0.2-1.7-0.4-1.9-1.3s0.4-1.7,1.3-1.9c0.3-0.1,0.6-0.1,0.9-0.2c-0.2-4.3-0.9-8.6-2-12.7
		c-0.3-1.1-0.6-2.2-1-3.3c-0.1-0.4-0.3-0.9-0.5-1.3c-0.5-1-1.5-1.7-2.4-2.1c-1.9-0.8-4.2-0.8-6.6-0.2l0,0c-1.2,0.3-2.3,0.6-3.5,1.1
		c1.2-0.5,2.4-0.8,3.5-1.1c5.1-24,3.7-40.7-4.1-49.7c-0.4-0.4-1-0.6-1.6-0.5c-0.2,0-4.8,1.1-10.8,4.9c-2.3,1.4-5.2,4.4-7.8,7.3
		c-0.6,0.6-1,1.1-1.1,1.2c0.2-0.2,0.5-0.6,1.1-1.2c0.2-0.7,0.4-1.3,0.7-2c0.1-0.4,0.3-0.8,0.4-1.2v-0.1c0.1-0.2,0.1-0.5,0.2-0.7
		c0.4-1.4,0.7-2.9,1-4.3c0.1-0.4,0.1-0.7,0.2-1.1c0.1-0.5,0.2-1.1,0.3-1.6c0.3-1.6,0.4-3.3,0.5-4.9c0.2-2.9,0.2-5.8,0-8.8
		c0-0.6-0.1-1.2-0.1-1.8c0-0.6-0.1-1.3-0.2-1.9c-0.1-0.5-0.1-0.9-0.2-1.4c-0.1-0.6-0.2-1.3-0.3-1.9c-0.1-0.4-0.1-0.9-0.2-1.3
		c-0.2-1.1-0.4-2.2-0.7-3.4c-0.1-0.5-0.2-0.9-0.3-1.4s-0.2-0.9-0.4-1.4c-0.1-0.3-0.2-0.7-0.3-1.1c-0.3-1.1-0.6-2.2-1-3.2
		c-0.2-0.4-0.3-0.9-0.5-1.3c-0.6-1.7-1.3-3.4-2-5c-0.2-0.5-0.4-0.9-0.6-1.4c-0.1-0.3-0.3-0.6-0.4-0.8c-0.1-0.3-0.3-0.6-0.4-0.8
		c-0.1-0.3-0.3-0.6-0.4-0.9c-1.1-2.2-2.7-4.9-3.8-6.9c-0.3-0.5-0.8-0.8-1.4-0.8c-0.1,0-0.2,0-0.3,0c-0.2,0-0.4,0-0.5,0s-0.2,0-0.3,0
		c-0.3,0-0.5,0.1-0.8,0.1c-0.5,0.1-1,0.2-1.5,0.3c-0.2,0-0.5,0.1-0.7,0.2c-5.3,1.6-10.1,4.2-14.5,7.5c0.3,0.9,0.3,0.8,0,0
		c-1.9-5.8-8.9-24.9-18.4-32.7c-2-1.6-4.3-2.2-6.8-1.6c-4.7,1-10.1,6-16,14.8c-3.3,4.9-5.9,9.7-6.9,11.6l0,0
		c-5.7-5.9-12.2-10.7-19.5-13.9c-0.3-0.1-0.7-0.2-1.1-0.1c-0.1,0-0.2,0.1-0.3,0.1c0,0-0.1,0-0.1,0.1c-0.1,0-0.1,0.1-0.2,0.1
		c-0.1,0.1-0.1,0.1-0.2,0.2c-0.5,0.5-0.9,1-1.3,1.4c-1.3,1.4-2.5,2.9-3.8,4.4c-1.4,1.7-3.4,4.2-4.8,6.1c-0.5,0.6-0.9,1.3-1.4,1.9
		c-0.2,0.2-0.3,0.5-0.5,0.7c-0.1,0.1-0.2,0.3-0.3,0.4c-0.3,0.5-0.6,0.9-0.9,1.4l0,0c-1.7,2.4-3.2,4.8-4.7,7.3
		c-0.4,0.7-0.8,1.3-1.2,2c-0.1,0.2-0.2,0.4-0.3,0.6c-0.4,0.6-0.7,1.3-1.1,1.9c0,0.1-0.1,0.1-0.1,0.2c-0.4,0.6-0.7,1.3-1,1.9
		c-0.1,0.1-0.2,0.3-0.2,0.4c-0.9,1.6-1.7,3.3-2.5,5l0,0c-0.8,1.7-1.5,3.4-2.2,5.1s-1.4,3.4-2,5.2c-0.6,1.7-1.2,3.5-1.7,5.3l0,0
		c-0.2,0.6-0.2,0.6,0,0c-1-0.6-2.1-1.1-3.2-1.6c-0.5-0.3-1.2-0.2-1.6,0.2c-0.1,0-0.1,0.1-0.2,0.1l-0.8,1l0,0L381,422
		c0,0.1-0.1,0.1-0.1,0.1c-0.2,0.3-0.5,0.6-0.7,1c0.2,0.3,0.2,0.3,0,0c-0.7,0.9-1.3,1.9-1.9,2.8l0,0l0,0c-4.8,7.9-6.6,17.5-6.3,26.7
		c0,0.6,0.9,0.5,0.9,0c0-2.8,0.4-5.6,0.9-8.3c1.3-6.7,3.8-13.3,8.1-18.6c0.5-0.6,0.9-1.1,1.4-1.7c0,0,0.3-0.3,0.6-0.6
		c1.2,0.5,3.7,2,3.9,2c3.5,2,6.8,4.3,10,6.6c2.4,1.7,4.6,3.6,6.8,5.6c2.1,2,4,4.3,5.8,6.7c0.3,0.4,0.8,0,0.6-0.4
		c-1.3-2.8-2.9-5.4-4.8-7.8s-4.1-4.6-6.4-6.6c-2.9-2.5-6.2-4.5-9.5-6.4l0,0c0.4-1.4,1-3.2,1.3-4.2c0.7-1.7,1.3-3.6,2-5.3
		c2.7-6.4,5.9-12.6,9.5-18.6c2.9-4.8,6.1-9.4,9.5-13.9c2.1-2.7,4.3-5.3,6.5-7.8c-0.3-0.2,0.2-0.3,0,0c10.1,4.5,18.5,12.4,25.3,21.1
		c5.3,6.9,9.8,14.4,13.6,22.3c1.2,2.6,2.4,5.3,3.4,8c0.1,0.2,0.3,0.4,0.5,0.6c0.5,0.3,1.2,0.1,1.5-0.4c4.8-8.7,10.5-17,17.6-24
		c6.4-6.3,14.7-12.7,23.8-13.9c-0.3-0.5-0.5-0.9-0.5-0.9l1.4,0.8c-0.3,0-0.6,0.1-0.9,0.1c0.6,1.1,1.6,2.9,1.6,2.9
		c8.5,15.4,11.9,33.3,7.4,50.4c-0.9,3.3-2.1,6.7-3.5,9.9l0,0c-2,0.1-4,0.3-6,0.7c-6.7,1.4-13.2,5-17.1,10.8
		c-0.4,0.7,0.6,1.4,1.1,0.7c1.3-1.7,3-3.2,4.7-4.4c5-3.5,11.1-4.9,17.2-4.7c7.1,13,11.2,28.8,6.7,43.2c0,0.2-0.1,0.3-0.1,0.4
		c-0.1,0.2-0.1,0.3-0.2,0.5c-0.3,0.6,0.5,1.2,1,0.7c0.1-0.1,0.3-0.2,0.4-0.3c0.1-0.1,0.3-0.2,0.4-0.3l0,0c2.1-1.5,4.2-2.9,6.4-4.3
		c4.8-2.9,9.9-6,15.3-7.4c1.9-0.4,3.8-0.8,5.5,0c0.4,0.2,0.7,0.5,1,0.8c0-0.1,0-0.1-0.1-0.2l0.2,0.3c0-0.1-0.1-0.1-0.1-0.2
		c0,0.1,0.1,0.2,0.1,0.3c0.9,2.7,1.5,5.5,2,8.3c1.4,8.7,1.3,18.3-3.9,25.7c-0.5,0.7-0.4,1.7,0.3,2.2s1.7,0.4,2.3-0.3
		c2-2.7,3.4-5.8,4.2-9c0.7-2.6,1-5.3,1.1-7.9l0,0l0,0c4.3-0.8,7.6-0.8,9.4-0.8c-1.5,20-4,38.3-7.6,55.2c-0.3,1.2-0.5,2.4-0.8,3.6
		c-0.1,0.4-0.2,0.9-0.3,1.3c-0.3,1.2-0.6,2.5-0.9,3.7c-0.3,1.3-0.7,2.7-1,4c-0.2,0.7-0.4,1.4-0.5,2c0,0.2-0.1,0.3-0.1,0.5
		s-0.1,0.3-0.1,0.5c-0.2,0.6-0.4,1.3-0.5,1.9c-0.5,1.7-1,3.3-1.5,5c-0.4,1.2-0.8,2.5-1.2,3.7l0,0c-0.4,1.1-0.7,2.2-1.1,3.3
		c0,0.1-0.1,0.2-0.1,0.2c-0.1,0.4-0.2,0.7-0.4,1.1c-0.3,0.8-0.6,1.7-0.9,2.5c-0.2,0.5-0.4,1-0.5,1.5c-0.3,0.8-0.6,1.6-0.9,2.3
		c-0.2,0.6-0.4,1.2-0.7,1.7c0,0.1-0.1,0.3-0.2,0.4c-0.2,0.6-0.5,1.3-0.8,1.9c-0.1,0.3-0.3,0.7-0.4,1c-0.4,1.1-0.9,2.2-1.4,3.3
		c-0.3,0.7-0.6,1.3-0.9,2c-0.3,0.7-0.6,1.4-0.9,2.1c-0.3,0.7-0.6,1.4-1,2.1l0,0c0,0.1-0.1,0.1-0.1,0.2c-0.3,0.5-0.5,1.1-0.8,1.6
		c-0.3,0.6-0.6,1.2-0.9,1.8c-0.3,0.6-0.6,1.3-1,1.9c-0.4,0.7-0.7,1.5-1.1,2.2c-0.2,0.4-0.4,0.7-0.6,1.1l0,0
		c-0.4,0.8-0.9,1.6-1.3,2.4c-0.2,0.4-0.4,0.8-0.7,1.2c-0.2,0.4-0.4,0.8-0.7,1.1c-0.6,1-1.1,2-1.7,2.9l0,0c0,0.1-0.1,0.2-0.1,0.2
		c0,0.1-0.1,0.2-0.1,0.2c-0.2,0.4-0.5,0.8-0.7,1.2c-0.1,0.1-0.2,0.3-0.3,0.4c0,0.1-0.1,0.2-0.2,0.3c-0.4,0.6-0.8,1.2-1.2,1.8
		c0,0.1-0.1,0.1-0.1,0.2c-0.2,0.3-0.4,0.5-0.5,0.8c0,0,0,0.1-0.1,0.1l-0.1,0.1c-0.4,0.7-0.9,1.3-1.3,1.9c0,0.1-0.1,0.1-0.1,0.2
		c-0.2,0.3-0.3,0.5-0.5,0.8c-0.1,0.1-0.1,0.2-0.2,0.3c-0.4,0.7-0.9,1.3-1.4,2c-0.1,0.2-0.2,0.3-0.3,0.5c0,0.1-0.1,0.1-0.1,0.2
		c0,0,0,0.1-0.1,0.1c-0.4,0.5-0.8,1.1-1.2,1.6l-0.1,0.1c0,0,0,0,0,0.1c-0.3,0.4-0.6,0.8-0.9,1.2c-0.3,0.4-0.7,0.8-1,1.3
		c-0.1,0.1-0.1,0.2-0.2,0.3c-0.2,0.2-0.3,0.4-0.5,0.6c-0.1,0.1-0.2,0.3-0.4,0.4c-0.2,0.3-0.5,0.6-0.7,0.9c-0.1,0.1-0.1,0.1-0.2,0.2
		c-0.2,0.3-0.4,0.5-0.6,0.8c-0.2,0.3-0.4,0.5-0.6,0.7c-1.4,1.6-2.8,3.1-4.2,4.6c-0.4,0.4-0.8,0.9-1.2,1.3c-0.4,0.4-0.8,0.8-1.2,1.2
		c-0.2,0.2-0.5,0.5-0.7,0.7l-0.1,0.1l-0.1,0.1c-0.5,0.5-1,1-1.5,1.5c0,0,0,0-0.1,0.1c0,0,0,0-0.1,0.1c-0.2,0.2-0.4,0.4-0.7,0.6
		c-0.5,0.4-1,0.9-1.4,1.3c0,0-0.1,0-0.1,0.1c-0.1,0.1-0.1,0.1-0.2,0.2c-0.3,0.3-0.7,0.6-1,0.9c-0.3,0.3-0.6,0.6-1,0.8
		c-0.2,0.2-0.5,0.4-0.7,0.6c-0.2,0.2-0.5,0.4-0.7,0.6c-0.4,0.4-0.8,0.7-1.3,1c-0.1,0.1-0.2,0.1-0.2,0.2c-0.3,0.3-0.7,0.6-1,0.8
		c0,0,0,0-0.1,0c-0.6,0.5-1.3,1-1.9,1.4c-0.2,0.1-0.3,0.2-0.5,0.3l0,0c-0.5,0.3-0.9,0.7-1.4,1s-0.9,0.7-1.4,1s-0.9,0.6-1.4,1
		c-0.7,0.5-1.4,0.9-2.1,1.4c-0.2,0.1-0.3,0.2-0.5,0.3c-0.6,0.4-1.1,0.7-1.7,1c-0.1,0.1-0.2,0.1-0.3,0.2c-0.1,0-0.1,0.1-0.2,0.1h-0.1
		c-0.3,0.2-0.6,0.4-0.9,0.5c-0.5,0.3-0.9,0.6-1.4,0.8c-0.5,0.3-0.9,0.5-1.4,0.8c-0.4,0.2-0.8,0.4-1.1,0.6c-0.5,0.3-1,0.6-1.6,0.8
		c-0.5,0.3-1,0.5-1.6,0.8c-1.3,0.6-2.5,1.2-3.8,1.8s-2.5,1.1-3.8,1.6c-0.6,0.3-1.3,0.5-1.9,0.8c-1.3,0.5-2.5,0.9-3.8,1.4
		c-2.5,0.9-5,1.7-7.5,2.3c-1.2,0.3-2.5,0.7-3.7,1c-0.6,0.1-1.2,0.3-1.8,0.4c-0.4,0.1-0.8,0.2-1.2,0.3c-0.6,0.1-1.2,0.2-1.7,0.4
		c-0.5,0.1-0.9,0.2-1.4,0.3c-0.1,0-0.3,0.1-0.4,0.1c-0.4,0.1-0.7,0.1-1.1,0.2c-1.4,0.2-2.8,0.5-4.1,0.7c-0.4,0.1-0.8,0.1-1.1,0.2
		c-0.4,0.1-0.8,0.1-1.1,0.1c-0.7,0.1-1.3,0.2-1.9,0.2c-0.2,0-0.4,0-0.6,0.1c-0.7,0.1-1.3,0.1-2,0.2c-0.7,0.1-1.5,0.1-2.2,0.2
		c-0.1,0-0.2,0-0.3,0c-0.6,0-1.2,0.1-1.8,0.1c-0.7,0-1.4,0.1-2.1,0.1s-1.4,0-2.1,0.1c-0.3,0-0.6,0-0.9,0s-0.7,0-1,0
		c-0.6,0-1.2,0-1.7,0c-0.6,0-1.1,0-1.7,0c-0.4,0-0.7,0-1.1,0c-1,0-1.9-0.1-2.9-0.1c-0.3,0-0.7,0-1-0.1c-0.4,0-0.8,0-1.3-0.1
		c-0.4,0-0.8,0-1.2-0.1c-0.1,0-0.2,0-0.3,0c-0.7,0-1.3-0.1-1.9-0.2c-0.6,0-1.1-0.1-1.7-0.2c-1.1-0.1-2.1-0.2-3.1-0.3
		c-0.9-0.1-1.7-0.2-2.5-0.3c-0.1,0-0.1,0-0.2,0c-1.2-0.2-2.3-0.4-3.4-0.5c-0.4-0.1-0.7-0.1-1-0.2c-0.4-0.1-0.8-0.1-1.2-0.2
		c-0.2,0-0.4-0.1-0.6-0.1c-0.3-0.1-0.7-0.1-1-0.2c-0.3-0.1-0.6-0.1-0.9-0.2c-0.3-0.1-0.6-0.1-0.9-0.2c-5.7-1.3-20.8-6.7-37.3-18
		c-13.7-9.4-32.5-25.8-44.5-50.8c-19.7-41.1-15-91.9,13.7-150.8c1.1,0,3.3,0.1,5.9,1c0.3,0.1,0.5,0.2,0.8,0.3
		c0.3,0.1,0.5,0.2,0.8,0.3c0.2,0.1,0.4,0.1,0.5,0.2c0.4,0.2,0.8,0.4,1.2,0.6c0.2,0.1,0.4,0.2,0.6,0.3c0.1,0.1,0.3,0.1,0.4,0.2
		s0.3,0.2,0.4,0.2c0.1,0.1,0.3,0.2,0.4,0.3l0,0c0,0,0.1,0,0.1,0.1c0.2,0.1,0.3,0.2,0.5,0.3c0.1,0.1,0.2,0.2,0.3,0.2
		c0.2,0.1,0.3,0.2,0.5,0.3c0.2,0.1,0.3,0.2,0.4,0.3c0,0,0,0,0.1,0c0.4,0.3,0.8,0.6,1.2,0.9c0.2,0.2,0.5,0.4,0.7,0.6
		c0.4,0.4,0.8,0.8,1.2,1.2c0.4,0.4,0.7,0.8,1.1,1.2c0.2,0.2,0.4,0.4,0.5,0.6c0.2,0.2,0.3,0.4,0.5,0.6c0.2,0.3,0.4,0.5,0.6,0.8
		c0.2,0.2,0.4,0.5,0.5,0.7c0.4,0.5,0.7,1,1.1,1.6s0.8,1.3,1.2,1.9c0.4,0.7,0.8,1.4,1.2,2.1c0,0.1,0.1,0.1,0.1,0.2s0.1,0.1,0.1,0.2
		c0.1,0.1,0.2,0.2,0.3,0.3c0.2-0.3,0.4-0.6,0.6-0.9c-0.2,0.3-0.4,0.6-0.6,0.9c-1.8,2.8-3.2,5.8-4.2,8.9c-0.2,0.6-0.6,2.3-0.7,2.9
		c-0.1,0.7-0.4,2.2-0.5,2.9c-0.2,1.1-0.2,2.8-0.3,3.9c-0.1,1,1.4,1.1,1.5,0.2v-0.1l0.2-1.9c0.1-1.4,0.6-3.2,0.9-4.6
		c0.2-0.5,0.7-2.1,0.8-2.7c2.1-5.7,5.8-11,10.9-14.5c0.3-0.2,0.5-0.4,0.8-0.5c5.6,2.2,10.8,5.7,15,9.9c1.5,1.5,2.9,3.1,4.2,4.8
		c0.1,0.2,0.4,0.3,0.7,0.1c0.2-0.1,0.3-0.4,0.1-0.7c-2.3-3.7-5.2-7.1-8.5-10c-2.5-2.2-5.2-4.2-8.1-5.8c-1-0.6-1.9-1.1-3-1.6
		c-0.4-0.2-0.9-0.2-1.3,0.1c-2.5,1.6-4.7,3.6-6.6,5.9c-0.2,0.3-0.4,0.6-0.7,0.8c0.2-0.3,0.4-0.6,0.6-0.8c-3.1-5.9-6.7-9.9-10.1-12.6
		c0,0.1,0,0.1,0,0c-0.5-0.4-0.5-0.4,0,0c0.5-5.6,1.3-10.8,2.5-15.4c0.1-0.3,0.2-0.7,0.3-1c0.1-0.5,0.2-1,0.4-1.5
		c0.2-0.7,0.4-1.3,0.6-1.9c0.1-0.4,0.2-0.8,0.4-1.2c0.1-0.4,0.2-0.8,0.4-1.2c0.1-0.2,0.1-0.4,0.2-0.7c0.1-0.5,0.3-0.9,0.5-1.4
		c0.2-0.6,0.4-1.2,0.7-1.8c0.1-0.4,0.3-0.8,0.5-1.2c0.1-0.2,0.2-0.4,0.3-0.6c0.2-0.5,0.4-0.9,0.6-1.4c0-0.1,0.1-0.2,0.1-0.4
		c0.2-0.4,0.4-0.8,0.5-1.3c0.2-0.5,0.5-1,0.7-1.5c0.2-0.4,0.4-0.9,0.6-1.3c0.6-1.2,1.2-2.4,1.9-3.5c0.2-0.4,0.4-0.7,0.6-1.1
		c0.7-1.1,1.3-2.2,2-3.2l0,0c0.3-0.4,0.6-0.9,0.9-1.3c0.3-0.5,0.6-0.9,0.9-1.4c0.3-0.4,0.5-0.7,0.8-1c0.6-0.7,1.1-1.5,1.7-2.1
		c0.2-0.3,0.4-0.5,0.7-0.8c0-0.1,0.1-0.1,0.1-0.2c0.3-0.3,0.5-0.6,0.8-0.9c0.2-0.3,0.5-0.5,0.7-0.8l0,0c0.4-0.4,0.7-0.8,1.1-1.2
		c1.7-1.7,3-2.9,3.7-3.4c4.2,1.4,9.6,8.8,11.4,11.3c0,0,0,0,0,0.1c0.6-1,1.2-1.9,1.9-2.9c-5.6-7.4-9.7-11.1-13.4-11.8
		c-0.4-0.1-0.9,0-1.2,0.3c-0.2,0.2-6,4.3-12.2,13.4c-0.1,0.1-0.1,0.1-0.1,0.2c-5.5,8.2-12.4,22-14.4,42.1l0,0l0,0
		c-0.1,0.8-0.1,0.8,0,0c-0.3-0.2-0.7-0.4-1-0.6c-1.7-0.9-3.3-1.5-4.8-2c-1-0.3-1.9-0.5-2.7-0.6c-2.7-0.5-4.6-0.3-4.8-0.2
		c-0.5,0.1-0.9,0.3-1.2,0.8c0,0,0,0.1-0.1,0.1C308,496.8,299.3,527.1,297.8,554.5z M461.1,423.8L461.1,423.8c0,0,0.6,0,1.1,0.1
		L461.1,423.8z M484,394.2c0-0.1-0.1-0.2-0.1-0.3c-9,7.7-16,18.2-21.7,28l0,0l0,0c-5-12.3-12.1-25.2-21.4-35.6l0,0
		c0,0,0-0.1,0.1-0.1c3.3-6.6,13.4-24,21.2-25.7c1.5-0.3,2.8,0,4,1c9.5,7.8,16.7,29,17.8,32.4C483.9,394,484,394.1,484,394.2z
		 M536.1,484.2c-4.9,1.9-9.9,5.2-13,7.3c-1.4,1-2.9,2-4.3,3c-0.1,0.3-0.1,0.3,0,0c3.8-13.9,0.5-29-5.8-41.8
		c4.9-6.1,9.4-10.6,11.9-12.2c4-2.5,7.3-3.7,8.9-4.2c6.6,8.6,7.5,25.1,2.4,47.8C536.1,484.1,536.1,484.1,536.1,484.2z M539.2,484.9
		c-0.2,0.7-0.8,1.1-1.5,1.1C538.3,486.1,538.9,485.6,539.2,484.9z"/>
</g>
<path class="st20" d="M297.8,554.5c-1.3,23.5,2.8,45.2,12,64.5c9.7,20.3,25.4,38.3,45.5,52c16.5,11.3,31.4,16.8,38,18.4
	c0.1,0,0.3,0.1,0.4,0.1l1,0.2c13.8,3,55.3,9,94-15.3c0.3-0.2,0.6-0.4,0.9-0.6c1.9-1.2,3.7-2.5,5.6-3.9c13.3-9.9,24.6-22.6,34.1-38.1
	l4.4-10c-0.7,0.9-1.5,1.8-2.4,2.8c16.7-30.5,26.9-70.8,30.4-120.5c0-0.5-0.2-1.1-0.6-1.4c-0.2-0.2-0.5-0.3-0.8-0.3
	c-0.1,0-2.6-0.3-6.6,0c-0.5,0-1,0.1-1.5,0.1c-0.4,0-0.8,0.1-1.2,0.2c-0.6,0.1-1.3,0.2-1.9,0.3c-0.1-1.5-0.2-3-0.4-4.6
	c0-0.1,0-0.2,0-0.3c-0.4-2.7-0.9-5.3-1.6-7.9c0-0.1,0-0.1,0-0.1c0,0.2,1,6.7,0.7,5.7c0,0-0.9,23.3-22,40.3c-3.5,2.8,16-7.8,24.8-5.9
	c13.1,2.8-21.4,150.9-128.9,130.4c-7.4-1.3-56.2-16-80.2-53.2c-2.6-4-4.8-8-6.6-11.8c-2.1-4.3-3.7-8.4-4.9-12.4
	c-4.9-15.6-4.5-29.3-3.9-41.6c0.5-11.2,24.5,8.8,21.7,1.5c-8.5-22.3,12.8-56.8,12.8-56.8c20.9,4.5,20,8.2,20.6,9.3
	c-12.9-38-8.4-46.2-5.4-61.9c0,0,6.2-9.2,6.4-9.5l0,0c0,0-0.2-1.4-0.7-3.3c0,0-1.2,1.5-1.5,1.9c-5.6-7.4-9.7-11.1-13.4-11.8
	c-0.4-0.1-0.9,0-1.2,0.3c-0.2,0.2-6,4.3-12.2,13.4c-0.1,0.1-0.1,0.1-0.1,0.2c-5.5,8.2-12.4,22-14.4,42.1c-0.3-0.2-0.7-0.4-1-0.6
	c-0.1,0.5-0.1,0.9-0.2,1.3c-2.1-1.2-4.1-2-5.8-2.5c-1-0.3-1.9-0.5-2.7-0.6c-2.7-0.5-4.5-0.3-4.8-0.2c0,0,0,0.1-0.1,0.1
	C308,496.8,299.3,527.1,297.8,554.5z"/>
<path class="st20" d="M540.5,458c-10.2,19.3-23,12.9-23,12.9s4.9,9.7,0.5,24.7c-1,3.6,20.7-11.5,20.7-11.5"/>
<path class="st20" d="M481.2,396.2c0,0-14.4,14.5-33.5-1.2l14.5,26.9L481.2,396.2z"/>
<path class="st19" d="M397.6,387.8"/>
<path class="st20" d="M414.2,447.7c-0.1-0.1-0.2-0.3-0.4-0.6C414,447.4,414.1,447.6,414.2,447.7z"/>
<path class="st19" d="M301.4,534c-0.1,0.7-0.4,2.2-0.5,2.9c-0.2,1.1-0.2,2.8-0.3,3.9c-0.1,1,1.4,1.1,1.5,0.2v-0.1l0.2-1.9
	c0.1-1.4,0.6-3.2,0.9-4.6c0.2-0.5,0.7-2.1,0.8-2.7c2.1-5.7,5.8-11,10.9-14.5c0.3-0.2,0.5-0.4,0.8-0.5c-0.2-0.1,0.2-0.1,0,0
	c5.6,2.2,10.8,5.7,15,9.9c1.5,1.5,2.9,3.1,4.2,4.8c0.1,0.2,0.4,0.3,0.7,0.1c0.2-0.1,0.3-0.4,0.1-0.7c-2.3-3.7-5.2-7.1-8.5-10
	c-2.5-2.2-5.2-4.2-8.1-5.8c-1-0.6-1.9-1.1-3-1.6c-0.4-0.2-0.9-0.2-1.3,0.1c-2.5,1.6-6.7,5.8-8.6,8.7c-1.8,2.8-3.2,5.8-4.2,8.9
	C302,531.7,301.5,533.4,301.4,534z"/>
<path class="st20" d="M396.8,464.6c-0.1,0.7-0.4,2.2-0.5,2.9c-0.2,1.1-0.2,2.8-0.3,3.9c-0.1,1,1.4,1.1,1.5,0.2v-0.1l0.2-1.9
	c0.1-1.4,0.6-3.2,0.9-4.6c0.2-0.5,0.7-2.1,0.8-2.7c2.1-5.7,5.8-11,10.9-14.5c0.3-0.2,0.5-0.4,0.8-0.5c-0.2-0.1,0.2-0.1,0,0
	c5.6,2.2,10.8,5.7,15,9.9c1.5,1.5,2.9,3.1,4.2,4.8c0.1,0.2,0.4,0.3,0.7,0.1c0.2-0.1,0.3-0.4,0.1-0.7c-2.3-3.7-5.2-7.1-8.5-10
	c-2.5-2.2-5.2-4.2-8.1-5.8c-1-0.6-1.9-1.1-3-1.6c-0.4-0.2-0.9-0.2-1.3,0.1c-2.5,1.6-6.7,5.8-8.6,8.7c-1.8,2.8-3.2,5.8-4.2,8.9
	C397.3,462.4,396.9,464,396.8,464.6z"/>
<path class="st20" d="M442.7,440.4c-0.3,0.6-1,2-1.4,2.6c-0.5,1-1.1,2.5-1.5,3.6c-0.4,0.9,1,1.5,1.4,0.6v-0.1l0.8-1.7
	c0.6-1.3,1.5-2.9,2.3-4.1c0.3-0.5,1.3-1.8,1.6-2.3c3.8-4.8,8.9-8.7,14.8-10.5c0.3-0.1,0.6-0.2,0.9-0.3c-0.2-0.2,0.2-0.1,0,0
	c4.6,3.8,8.5,8.7,11.3,14c1,1.9,1.8,3.8,2.6,5.8c0.1,0.2,0.3,0.4,0.6,0.3c0.3-0.1,0.4-0.3,0.3-0.6c-1.1-4.2-2.8-8.4-5-12.1
	c-1.7-2.9-3.7-5.6-5.9-8c-0.8-0.8-1.5-1.6-2.4-2.4c-0.4-0.3-0.8-0.4-1.3-0.3c-2.9,0.8-8.2,3.5-10.8,5.6c-2.6,2.1-4.8,4.5-6.7,7.2
	C443.9,438.4,443,439.9,442.7,440.4z"/>
<ellipse transform="matrix(0.1525 -0.9883 0.9883 0.1525 -151.7585 881.2997)" class="st20" cx="438" cy="529.1" rx="7.7" ry="82.8"/>
<path class="st21" d="M432.4,497.3c0,0,10.2-7.2,16.9,3.4"/>
<path class="st20" d="M393.1,406.7c0,0,121.1,10.8,126.5,20.9l-2.9,13.4c0,0-40.3-15.8-127.5-21L393.1,406.7z"/>
<path class="st22" d="M457.3,565.6c0,0-1.5,12.7-27.1,10.4"/>
<g>
	<path d="M437.9,484l-4.5,26.3c-1.8,10.6-11.9,17.7-22.7,15.9l-33.9-5.6c-2.4-0.4-4.5-1.2-6.5-2.3c-7-3.9-11.1-11.8-9.7-20.1
		l4.5-26.3c0.7-4,4.5-6.7,8.6-6.1l58,9.6C435.8,476.2,438.6,480,437.9,484z"/>
</g>
<g>
	<path d="M518.2,497.8l-4.5,26.3c-1.8,10.6-11.9,17.7-22.7,15.9l-33.9-5.6c-2.4-0.4-4.5-1.2-6.5-2.3c-7-3.9-11.1-11.8-9.7-20.1
		l4.5-26.3c0.7-4,4.5-6.7,8.6-6.1l58,9.6C516.1,490,518.9,493.8,518.2,497.8z"/>
</g>
<g>
	<path class="st23" d="M521.1,419.6l-129.7-21.4l15.5-49.4c1.4-8.2,10.3-13.5,20-11.9l79.9,13.2c9.6,1.6,16.3,9.5,14.9,17.7
		L521.1,419.6z"/>
	<g>
		<path class="st24" d="M521.1,427c-0.6,0-1.3-0.1-2.1-0.2c-2-0.3-10.2-2-20.6-4.1c-15.7-3.2-35.3-7.1-42.5-8.3
			c-30.3-5-47.2-6.7-56.4-7.7c-3.5-0.4-5.9-0.6-7.5-0.9c-2.8-0.5-4.5-1.3-5.5-2.7c-1.2-1.7-0.9-3.8-0.6-5.7v-0.2
			c0.6-3.5,3.7-6.1,7.3-6.1c0.3,0,0.6,0,0.8,0c0.5-0.1,1-0.1,1.5-0.1c3.8,0,16.9,1.1,62.7,8.7c25.9,4.3,45.1,7.8,55.4,10.1
			c4.8,1.1,7.1,1.8,8.1,2.4c1.8,0.4,3.3,1.4,4.4,2.9c1.1,1.6,1.6,3.5,1.2,5.4v0.2C527.2,422.5,526.5,427,521.1,427z"/>
		<path class="st23" d="M395.6,392.6c3.5,0,16.2,1,62.5,8.7c63.3,10.4,63.1,12.4,63.1,12.4c3.2,0.5,5.4,3.5,4.8,6.7v0.2
			c-0.5,2.7-1.4,4.9-4.9,4.9c-0.5,0-1.2-0.1-1.8-0.2c-5.1-0.8-51.1-10.4-63.1-12.4c-41.6-6.9-58-7.6-63.9-8.5
			c-5.8-1-5.4-3.5-4.8-6.7v-0.2c0.5-2.8,3-4.9,5.8-4.9c0.3,0,0.7,0,1,0.1C394.3,392.7,394.3,392.6,395.6,392.6 M395.6,389.6
			L395.6,389.6c-0.4,0-0.9,0-1.5,0.1c-0.3,0-0.5,0-0.8,0c-4.4,0-8,3.1-8.8,7.4v0.2c-0.3,2.1-0.8,4.6,0.8,6.9
			c1.2,1.7,3.3,2.8,6.5,3.3c1.7,0.3,4,0.5,7.6,0.9c9.1,0.9,26.1,2.7,56.3,7.6c7.2,1.2,26.7,5.1,42.4,8.3c10.4,2.1,18.6,3.8,20.6,4.1
			c0.8,0.1,1.6,0.2,2.3,0.2c4.4,0,7.1-2.5,7.9-7.4V421c0.4-2.3-0.1-4.6-1.5-6.5c-1.3-1.8-3.1-3-5.2-3.5c-0.4-0.2-0.8-0.4-1.1-0.5
			c-1.4-0.5-3.8-1.1-7.2-1.9c-10.5-2.4-29.2-5.8-55.5-10.2C412.7,390.7,399.4,389.6,395.6,389.6L395.6,389.6z"/>
	</g>
	<path class="st4" d="M484.3,362.7c-2.2,9.1-9.3,32.6-25.5,30c-0.1,0-0.1,0-0.2,0c-16-2.8-15-27.2-14-36.5c0.2-1.9,2-3.3,4-3
		l16.1,2.7l16.9,2.8C483.5,358.9,484.8,360.7,484.3,362.7z"/>
	<path class="st25" d="M484.3,362.7c-2.2,9.1-9.3,32.6-25.5,30c-0.1,0-0.1,0-0.2,0l6-36.8l16.9,2.8
		C483.5,358.9,484.8,360.7,484.3,362.7z"/>
</g>
<g>
	<g>
		<path class="st7" d="M298.4,587c-10.3,0-19.9-4.5-26.4-12.4c-1.4-1.7-2.7-3.6-3.7-5.6l-0.1-0.2l0,0l-28.7-54.1
			c-1.2-2.3-1.5-4.9-0.7-7.3c0.7-2.3,2.3-4.1,4.5-5.3c1.3-0.7,2.8-1,4.2-1c0.7,0,1.4,0.1,2,0.2l-3.5-6.5c-1.3-2.4-1.5-5.1-0.7-7.7
			s2.6-4.7,5.1-6c1.5-0.8,3.1-1.2,4.8-1.2c1.1,0,2.1,0.2,3.1,0.5c0.7,0.3,1.5,0.6,2.1,1c0.1-0.7,0.2-1.4,0.4-2.1
			c0.9-2.8,2.8-5,5.4-6.3c1.6-0.8,3.2-1.2,4.9-1.2c4.1,0,8,2.4,10,6.2l0.2,0.3c0.9-2.4,2.6-4.4,4.9-5.6c1.5-0.8,3-1.1,4.6-1.1
			c3.8,0,7.5,2.3,9.4,5.8l23.7,44.8l1.8-5.2c2-5.7,7.2-9.8,13.3-10.5c0.6-0.1,1.2-0.1,1.8-0.1c1.6,0,3.2,0.2,4.8,0.7
			c3.3,1,5.2,4.4,4.3,7.7L340,551c-4.1,15.6-11.7,25-26.2,32.5C309.1,585.7,303.8,587,298.4,587z"/>
		<path class="st19" d="M290.9,474.3c2.9,0,5.5,1.8,6.8,4.3l24.8,46.9l-14.3,7.4c-5.7,2.9-10.8,6.2-12.3,12.4
			c-0.2,0.7,1.3,3.4,2,3.6c0,0,0,0,0.1,0c0.6,0,0.4-2.3,0.6-3c1.3-5.4,5.9-8,10.9-10.6l15.5-8c0.1,0,0.1-0.1,0.2-0.1h0.1
			c0.1-0.1,0.2-0.1,0.2-0.2v-0.1c0.1-0.1,0.1-0.2,0.2-0.3l0,0l3.1-8.7c1.7-4.8,6-8,10.8-8.5c0.5-0.1,1-0.1,1.5-0.1
			c1.3,0,2.6,0.2,3.9,0.6c1.7,0.5,2.7,2.3,2.3,4l-9.9,36.2c-3.9,14.7-11,23.6-24.7,30.6c-4.5,2.3-9.3,3.4-14,3.4
			c-9.2,0-18.1-4.1-24-11.3c-1.3-1.6-2.4-3.2-3.4-5.1l0,0l-28.8-54.3c-1.5-2.7-1.1-6.7,2.5-8.5c0.9-0.5,1.9-0.7,2.9-0.7
			c2.2,0,4.4,1.2,5.5,3.3l13.7,25.9c0.2,0.5,0.7,0.7,1.2,0.7c0.2,0,0.4,0,0.6-0.2c0.7-0.3,0.9-1.2,0.6-1.8L249,493.5
			c-1.9-3.5-0.5-7.8,3.1-9.7c1.1-0.6,2.2-0.9,3.4-0.9c0.7,0,1.5,0.1,2.2,0.3c1.8,0.6,3.3,1.9,4.2,3.6l20.5,38.6
			c0.2,0.5,0.7,0.7,1.2,0.7c0.2,0,0.4,0,0.6-0.2c0.7-0.3,0.9-1.2,0.6-1.8L264.6,486c-2-3.8-0.5-8.5,3.3-10.4
			c1.2-0.6,2.4-0.9,3.5-0.9c3.1,0,5.9,2,7.3,4.6l20,37.7c0.2,0.5,0.7,0.7,1.2,0.7c0.2,0,0.4,0,0.6-0.2c0.7-0.3,0.9-1.2,0.6-1.8
			l-16.4-30.9c-1.9-3.5-0.5-7.8,3.1-9.7C288.7,474.5,289.8,474.3,290.9,474.3 M290.9,468.3c-2.1,0-4.1,0.5-6,1.5
			c-1.5,0.8-2.8,1.8-3.8,3c-2.6-2.6-6.2-4.1-9.8-4.1c-2.2,0-4.3,0.5-6.3,1.5c-3,1.5-5.2,4-6.5,7c-1-0.3-2.1-0.4-3.2-0.4
			c-2.2,0-4.3,0.5-6.2,1.5c-3.1,1.6-5.5,4.4-6.5,7.8c-1.1,3.4-0.7,6.9,0.9,10l1.2,2.2c-0.9,0.2-1.8,0.6-2.7,1c-2.9,1.5-5.1,4-6,7.1
			c-1,3.1-0.6,6.7,1,9.6l28.5,53.9l0,0l0.2,0.5c1.2,2.2,2.5,4.2,4,6.1c7,8.6,17.5,13.5,28.7,13.5c5.8,0,11.6-1.4,16.8-4.1
			c15.2-7.8,23.5-18.1,27.7-34.4l9.9-36.2c1.4-4.9-1.4-9.9-6.3-11.4c-1.8-0.6-3.7-0.9-5.6-0.9c-0.7,0-1.4,0-2.1,0.1
			c-6.8,0.7-12.6,5.1-15.3,11.3l-20.6-38.8C300.5,471.2,295.8,468.3,290.9,468.3L290.9,468.3z"/>
	</g>
	<g>
		<path class="st1" d="M347,513.8l-9.9,36.2c-3.9,14.7-11,23.6-24.7,30.6c-13.1,6.7-29,3.1-38.1-7.9c3.1,2.6,8.8,3.3,19.9,3
			c28.9-0.6,34.9-27.3,34.9-27.3s7-19.8,9.5-25.2c1.5-3.2,1.2-9.4,0.7-14c1.7-0.2,3.6,0,5.3,0.5C346.5,510.2,347.5,512,347,513.8z"
			/>
	</g>
</g>
<line class="st26" x1="387.8" y1="479" x2="371.7" y2="494.8"/>
<line class="st26" x1="392.8" y1="486.9" x2="376.7" y2="502.7"/>
<line class="st26" x1="468.1" y1="491.8" x2="452" y2="507.6"/>
<line class="st26" x1="473.1" y1="499.7" x2="457" y2="515.5"/>
</svg>
