<svg width="857" height="827" viewBox="0 0 857 827" fill="none" xmlns="http://www.w3.org/2000/svg">
<g clip-path="url(#clip0_4006_1559)">
<path d="M603 540.6C607 532.2 609.2 523.4 609.2 514.4C609.2 443.9 478.6 386.8 317.5 386.8C156.4 386.8 25.7998 443.9 25.7998 514.4C25.7998 584.9 156.4 642 317.5 642C318 642 318.4 642 318.9 642C337.6 683.8 421.8 715.4 522.8 715.4C637.6 715.4 730.6 674.7 730.6 624.5C730.6 586.7 677.9 554.3 603 540.6ZM80.2998 466.6C88.0998 466.6 94.3998 469.3 94.3998 472.6C94.3998 475.9 88.0998 478.6 80.2998 478.6C72.4998 478.6 66.1998 475.9 66.1998 472.6C66.1998 469.3 72.4998 466.6 80.2998 466.6ZM89.0998 516.2C72.9998 516.2 59.9998 510.7 59.9998 503.8C59.9998 496.9 72.9998 491.4 89.0998 491.4C105.2 491.4 118.2 496.9 118.2 503.8C118.2 510.7 105.2 516.2 89.0998 516.2ZM527.1 705.4C519.3 705.4 513 702.7 513 699.4C513 696.1 519.3 693.4 527.1 693.4C534.9 693.4 541.2 696.1 541.2 699.4C541.2 702.7 534.9 705.4 527.1 705.4Z" fill="white"/>
<path d="M586.4 826.6C606.559 826.6 622.9 820.78 622.9 813.6C622.9 806.42 606.559 800.6 586.4 800.6C566.242 800.6 549.9 806.42 549.9 813.6C549.9 820.78 566.242 826.6 586.4 826.6Z" fill="white"/>
<path d="M461.2 810.7C509.525 810.7 548.7 795.164 548.7 776C548.7 756.836 509.525 741.3 461.2 741.3C412.875 741.3 373.7 756.836 373.7 776C373.7 795.164 412.875 810.7 461.2 810.7Z" fill="white"/>
<path opacity="0.5" d="M461.2 810.7C509.525 810.7 548.7 795.164 548.7 776C548.7 756.836 509.525 741.3 461.2 741.3C412.875 741.3 373.7 756.836 373.7 776C373.7 795.164 412.875 810.7 461.2 810.7Z" fill="#5CADFF"/>
<path opacity="0.5" d="M603 540.6C607 532.2 609.2 523.4 609.2 514.4C609.2 443.9 478.6 386.8 317.5 386.8C156.4 386.8 25.7998 443.9 25.7998 514.4C25.7998 584.9 156.4 642 317.5 642C318 642 318.4 642 318.9 642C337.6 683.8 421.8 715.4 522.8 715.4C637.6 715.4 730.6 674.7 730.6 624.5C730.6 586.7 677.9 554.3 603 540.6ZM80.2998 466.6C88.0998 466.6 94.3998 469.3 94.3998 472.6C94.3998 475.9 88.0998 478.6 80.2998 478.6C72.4998 478.6 66.1998 475.9 66.1998 472.6C66.1998 469.3 72.4998 466.6 80.2998 466.6ZM89.0998 516.2C72.9998 516.2 59.9998 510.7 59.9998 503.8C59.9998 496.9 72.9998 491.4 89.0998 491.4C105.2 491.4 118.2 496.9 118.2 503.8C118.2 510.7 105.2 516.2 89.0998 516.2ZM527.1 705.4C519.3 705.4 513 702.7 513 699.4C513 696.1 519.3 693.4 527.1 693.4C534.9 693.4 541.2 696.1 541.2 699.4C541.2 702.7 534.9 705.4 527.1 705.4Z" fill="#5CADFF"/>
<path opacity="0.5" d="M586.4 826.6C606.559 826.6 622.9 820.78 622.9 813.6C622.9 806.42 606.559 800.6 586.4 800.6C566.242 800.6 549.9 806.42 549.9 813.6C549.9 820.78 566.242 826.6 586.4 826.6Z" fill="#5CADFF"/>
<path d="M770.4 4.6001C770.4 4.6001 510 163.2 635.7 317.8C737.9 443.5 851.5 339 851.5 261.6C851.5 184.2 760.3 139.3 770.4 4.6001Z" fill="white" stroke="#5CADFF" stroke-width="9" stroke-miterlimit="10" stroke-linecap="round" stroke-linejoin="round"/>
<path d="M801.9 457H726.4H650.9" stroke="#00478F" stroke-width="9" stroke-miterlimit="10" stroke-linecap="round"/>
<path d="M726.4 457V144.9" stroke="#00478F" stroke-width="9" stroke-miterlimit="10" stroke-linecap="round"/>
<path d="M726.7 275.4L788 214.1" stroke="#00478F" stroke-width="9" stroke-miterlimit="10" stroke-linecap="round"/>
<path d="M726.2 311.3L664.9 250" stroke="#00478F" stroke-width="9" stroke-miterlimit="10" stroke-linecap="round"/>
<path opacity="0.5" d="M771.5 0.300049C771.5 0.300049 505.2 162.5 633.7 320.7C738.2 449.3 854.5 342.4 854.5 263.2C854.5 184 761.1 138.1 771.5 0.300049Z" fill="#5CADFF"/>
<g opacity="0.5">
<path d="M87.4004 746.1C102.312 746.1 114.4 738.265 114.4 728.6C114.4 718.935 102.312 711.1 87.4004 711.1C72.4887 711.1 60.4004 718.935 60.4004 728.6C60.4004 738.265 72.4887 746.1 87.4004 746.1Z" fill="#5CADFF" stroke="#5CADFF" stroke-width="7" stroke-miterlimit="10" stroke-linecap="round"/>
</g>
<path d="M694.399 721.1C694.399 721.1 694.399 663.4 694.399 648.2C694.399 624.1 708.399 630.1 708.399 630.1" stroke="#5CADFF" stroke-width="9" stroke-miterlimit="10" stroke-linecap="round"/>
<path d="M677.399 680.6V721.1" stroke="#5CADFF" stroke-width="9" stroke-miterlimit="10" stroke-linecap="round"/>
<path d="M677.4 680.6C677.4 679.5 677.3 678.5 677 677.5C675.6 671.8 670.5 667.6 664.4 667.6C658.3 667.6 653.2 671.8 651.8 677.5" stroke="#5CADFF" stroke-width="9" stroke-miterlimit="10" stroke-linecap="round"/>
<path d="M710.899 721.1V689.3" stroke="#5CADFF" stroke-width="9" stroke-miterlimit="10" stroke-linecap="round"/>
<path d="M730.9 686.9C729.8 682.5 725.8 679.2 721 679.2C716.2 679.2 712.2 682.5 711.1 686.9C710.9 687.7 710.8 688.5 710.8 689.3" stroke="#5CADFF" stroke-width="9" stroke-miterlimit="10" stroke-linecap="round"/>
<path d="M642.4 594.6V556.1" stroke="#5CADFF" stroke-width="9" stroke-miterlimit="10" stroke-linecap="round"/>
<path d="M642.4 594.1C642.4 594.1 642.4 566.4 642.4 551.2" stroke="#5CADFF" stroke-width="9" stroke-miterlimit="10" stroke-linecap="round"/>
<path d="M621.3 565.3C643.5 564 659.7 527.7 591.2 516.5C591.2 516.5 592.7 567 621.3 565.3Z" fill="#FFF3CC" stroke="#5CADFF" stroke-width="6" stroke-miterlimit="10"/>
<path d="M658.8 568.4C641.5 567 629.5 538.2 683.3 530.8C683.3 530.7 681.1 570.2 658.8 568.4Z" fill="#FFF3CC" stroke="#5CADFF" stroke-width="6" stroke-miterlimit="10"/>
<path d="M65.6996 724.6C65.6996 724.6 62.7996 739.9 89.1996 740.3" stroke="#5CADFF" stroke-width="7" stroke-miterlimit="10" stroke-linecap="round"/>
<path d="M152.2 432.4C152.2 432.4 152.2 404.7 152.2 389.5" stroke="#5CADFF" stroke-width="9" stroke-miterlimit="10" stroke-linecap="round"/>
<path d="M151.8 398.7C161.465 398.7 169.3 390.865 169.3 381.2C169.3 371.535 161.465 363.7 151.8 363.7C142.135 363.7 134.3 371.535 134.3 381.2C134.3 390.865 142.135 398.7 151.8 398.7Z" fill="#FFF3CC" stroke="#5CADFF" stroke-width="9" stroke-miterlimit="10" stroke-linecap="round"/>
<path opacity="0.25" d="M381.5 708.1C436.232 708.1 480.6 698.071 480.6 685.7C480.6 673.329 436.232 663.3 381.5 663.3C326.769 663.3 282.4 673.329 282.4 685.7C282.4 698.071 326.769 708.1 381.5 708.1Z" fill="#00478F"/>
<path opacity="0.25" d="M726.5 483.5C781.508 483.5 826.1 471.501 826.1 456.7C826.1 441.899 781.508 429.9 726.5 429.9C671.493 429.9 626.9 441.899 626.9 456.7C626.9 471.501 671.493 483.5 726.5 483.5Z" fill="#00478F"/>
<path d="M504.1 482.3V482.2C503.9 481.7 503.6 481.4 503.1 481.2C502.9 481.1 501.1 480.5 498.4 480.4C497.6 480.4 496.6 480.4 495.6 480.4C494.1 480.5 492.3 480.8 490.5 481.3C490.1 481.4 489.7 481.5 489.4 481.6C491.7 461.5 487.9 446.6 484.2 437.4C484.2 437.3 484.1 437.2 484.1 437.2C480 427 475.2 421.8 475 421.6C474.7 421.3 474.3 421.1 473.9 421.1C470.2 421 465.3 423.7 458.3 429.8C458.1 429.4 458 429.1 457.8 428.7C457.8 428.6 457.7 428.6 457.7 428.5L457.3 427.6L456.7 426.5C456.7 426.4 456.6 426.4 456.6 426.3C456.2 425.8 455.6 425.6 455 425.8C453.8 426.1 452.6 426.3 451.5 426.7C451.4 424.9 451.2 423 450.9 421.2C450.7 419.4 450.4 417.5 450 415.7C449.7 413.9 449.3 412.1 448.9 410.3C448.5 408.5 448 406.7 447.5 404.9C447.5 404.8 447.4 404.6 447.4 404.4C447.2 403.7 447 403 446.8 402.3C446.8 402.2 446.8 402.2 446.7 402.1C446.5 401.4 446.3 400.7 446 400C445.9 399.8 445.9 399.6 445.8 399.4C445.6 398.7 445.3 397.9 445 397.2C444 394.4 443 391.7 441.9 389C441.7 388.5 441.5 388 441.3 387.5C441.2 387.3 441.2 387.2 441.1 387C441 386.7 440.9 386.5 440.8 386.2C440.5 385.5 440.2 384.8 439.9 384.1C438.9 382 437.6 379.2 436.5 377.2C435.6 375.5 434.7 373.8 433.7 372.1C433.5 371.7 433.2 371.3 433 370.9C432.9 370.7 432.8 370.6 432.7 370.5C432.7 370.4 432.6 370.4 432.6 370.3C432.5 370.2 432.5 370.2 432.5 370.2L432.4 370.1C432.3 370 432.3 370 432.2 369.9C431.9 369.7 431.5 369.7 431.1 369.7C423.3 371.3 415.9 374.7 409.1 379.2C408.5 377 407 371.9 404.8 366.4C404.4 365.4 404 364.5 403.6 363.6C403.5 363.3 403.3 363 403.2 362.7C403.1 362.4 402.9 362.1 402.8 361.8C402.5 361.1 402.1 360.4 401.8 359.7C401.7 359.6 401.7 359.5 401.6 359.3C401.3 358.8 401 358.3 400.8 357.8C400.7 357.6 400.5 357.3 400.4 357.1C399.7 355.9 399 354.9 398.3 353.9C398 353.6 397.8 353.2 397.5 352.9C397.2 352.6 397 352.3 396.7 352C395.9 351.1 395.1 350.3 394.2 349.7C394 349.6 393.9 349.5 393.7 349.4C393.5 349.3 393.4 349.2 393.2 349.1C392.9 348.9 392.6 348.7 392.2 348.6C389.9 347.5 387.5 347.6 385.3 348.8C374.3 354.4 363.5 371.6 360.4 376.9C356.8 372.7 352.6 369.1 347.8 366.5C347.6 366.4 347.4 366.3 347.1 366.2C346.6 366 346.2 365.8 345.7 365.6C345.5 365.5 345.2 365.4 345 365.3C344.9 365.3 344.8 365.2 344.8 365.2C344.6 365.1 344.5 365.1 344.3 365.1C344.2 365.1 344.1 365 344 365C343.4 364.9 342.8 365.1 342.5 365.5C341 367.2 338.9 369.5 337.3 371.4C337.1 371.7 336.9 371.9 336.7 372.2C336.5 372.4 336.3 372.7 336.1 372.9C335.9 373.1 335.7 373.4 335.5 373.6C335.2 374 334.9 374.4 334.6 374.8C333.5 376.2 332.5 377.7 331.5 379.3C331.3 379.7 331 380.1 330.8 380.5C330.2 381.5 329.7 382.5 329.1 383.5C328.9 383.8 328.7 384.1 328.6 384.5C328.4 384.9 328.2 385.4 327.9 385.8C327.7 386.2 327.5 386.7 327.3 387.1C326.8 388.1 326.3 389.2 325.9 390.2C325.7 390.6 325.6 391 325.4 391.4C325.2 392 324.9 392.6 324.7 393.2C324.5 393.6 324.4 394.1 324.2 394.5C324 395.1 323.8 395.7 323.6 396.3C323.4 396.9 323.3 397.4 323.1 398C322.3 400.8 321.7 403.7 321.3 406.6C321.1 407.8 321 409.1 320.9 410.3C320.9 410.7 320.8 411.1 320.8 411.5C320.8 412.1 320.7 412.6 320.7 413.2C320.7 413.6 320.7 413.9 320.7 414.3C320.7 415.8 320.7 417.2 320.8 418.7C320.8 418.8 320.8 418.9 320.8 419.1C320.8 419.2 320.8 419.3 320.8 419.5V419.6C320.8 420 320.9 420.5 320.9 420.9C321 421.6 321 422.3 321.1 423C320.4 421.8 319.7 420.7 319 419.5C318.8 419.2 318.6 418.9 318.5 418.7C318 417.9 317.4 417.1 316.9 416.4C316.7 416.1 316.4 415.7 316.1 415.4C315.7 414.9 315.3 414.5 315 414.2C309.9 409.2 305.6 407.2 305.4 407.1C304.9 406.9 304.2 406.9 303.8 407.3C294.2 414.5 289.3 430.5 289.3 455C287.1 453.9 284.9 453.4 282.8 453.8C281.8 454 280.7 454.5 280 455.4C279.8 455.8 279.5 456.2 279.3 456.6C278.7 457.6 278.1 458.6 277.6 459.6C276.7 461.4 275.8 463.3 275.1 465.2C274.9 465.7 274.7 466.1 274.5 466.6C274.4 467 274.2 467.4 274.1 467.8C273.9 468.4 273.7 469 273.5 469.6C273.4 470 273.2 470.5 273.1 470.9C273 471.1 273 471.3 272.9 471.5V471.6C272.4 471.4 271.9 471.2 271.5 471C267.7 469.6 264.7 469 263.2 468.7C262.5 468.6 262.1 468.5 262.1 468.5C261.3 468.4 260.5 469 260.3 469.9C252.6 523 254.9 567 267 601.5C273 618.7 281.4 633.6 292.3 646C294.1 648.1 296 650.1 297.9 652C298.1 652.3 298.4 652.5 298.7 652.8C331.4 684.7 373.3 687.6 387.4 687.6H388.4C388.5 687.6 388.7 687.6 388.8 687.6C395.6 687.4 411.3 685.2 429.8 677.6C452.4 668.4 471.6 654.1 485.3 636.4C498.4 619.5 506.9 599.1 510.6 575.9C515 548.5 512.8 517.1 504.1 482.3Z" fill="#FF9A68"/>
<path d="M282.4 456.7C282.4 456.8 282.3 456.8 282.3 456.9C282.2 456.9 282.2 457 282.1 457L282.4 456.7Z" fill="#CC4502"/>
<path d="M344.8 367.4C344.8 367.4 344.5 367.7 344.1 368.2C343.8 368.1 343.5 368 343.3 367.9L344.8 367.4Z" fill="#CC4502"/>
<path d="M431.8 372.7C431.4 372.8 431.1 372.9 430.7 372.9C430.5 372.6 430.3 372.3 430.1 371.9L431.8 372.7Z" fill="#CC4502"/>
<path d="M504.1 482.3V482.2C503.9 481.7 503.6 481.4 503.1 481.2C502.9 481.1 501.1 480.5 498.4 480.4C497.6 480.4 496.6 480.4 495.6 480.4C494.1 480.5 492.3 480.8 490.5 481.3C490.1 481.4 489.7 481.5 489.4 481.6C489.3 482.4 489.3 482.4 489.4 481.6C491.7 461.5 487.9 446.6 484.2 437.4C484.2 437.3 484.1 437.2 484.1 437.2C480 427 475.2 421.8 475 421.6C474.7 421.3 474.3 421.1 473.9 421.1C470.2 421 465.3 423.7 458.3 429.8C458.8 430.8 459.2 431.9 459.6 433C459.6 433 459.6 433 459.7 432.9C462 430.8 468.8 424.8 473.2 424.3C473.8 425 474.8 426.4 476.1 428.4C476.4 428.8 476.6 429.3 476.9 429.8C477.1 430.1 477.2 430.4 477.4 430.7C477.6 431 477.8 431.4 478 431.7C478 431.8 478.1 431.8 478.1 431.9C478.3 432.2 478.4 432.5 478.6 432.8C479 433.6 479.4 434.4 479.8 435.2C480 435.6 480.2 436 480.3 436.4C480.5 436.9 480.7 437.4 480.9 437.9C481.1 438.4 481.3 438.9 481.5 439.4C481.9 440.5 482.4 441.7 482.8 443C482.9 443.4 483.1 443.8 483.2 444.2C483.6 445.4 483.9 446.7 484.3 448C484.4 448.5 484.5 448.9 484.6 449.4C484.7 449.9 484.8 450.5 485 451C485.1 451.4 485.2 451.9 485.3 452.3C485.3 452.4 485.3 452.5 485.4 452.7C485.5 453.2 485.6 453.7 485.7 454.1C485.7 454.3 485.8 454.6 485.8 454.8C485.9 455.2 485.9 455.6 486 456.1C486.1 456.7 486.2 457.4 486.3 458C486.4 458.5 486.4 459 486.5 459.5C486.5 459.7 486.6 460 486.6 460.2C486.6 460.6 486.7 461 486.7 461.4C486.7 461.8 486.8 462.2 486.8 462.6C486.9 463.3 486.9 463.9 486.9 464.6C486.9 465.1 486.9 465.6 487 466.1C487 466.5 487 466.8 487 467.2C487.1 472 486.9 477.2 486.2 482.8C486.8 482.5 486.8 482.5 486.2 482.8C486.2 482.9 486.2 482.9 486.2 482.8C482.2 484.7 477.9 487.8 473.6 492.9C473.8 493.2 473.9 493.5 474.1 493.9C473.9 493.6 473.8 493.3 473.6 492.9C472.3 490.3 470.5 487.8 468.4 485.7C468 485.4 467.6 485.3 467.1 485.3C465.9 485.6 464.9 485.9 463.8 486.2C460.6 487.2 457.6 488.6 454.7 490.2C450.9 492.3 447.3 495 444.3 498.2C444.1 498.4 444.1 498.7 444.3 498.9C444.5 499.1 444.8 499.1 445 498.9C446.6 497.5 448.3 496.2 450.1 495.1C455.2 491.9 461 489.6 466.9 488.6C467.1 488.8 467.4 489.1 467.6 489.3C471.8 493.8 474.3 499.7 475.1 505.7C475.1 506.3 475.3 507.9 475.4 508.5C475.4 509.9 475.5 511.7 475.3 513.2L475.1 515.1V515.2C475 516.2 476.5 516.3 476.6 515.4C476.7 514.3 477 512.6 477.1 511.5C477.1 510.8 477.2 509.2 477.2 508.6C477.2 508 477.1 506.3 477.1 505.6C476.8 502.3 476.1 499.1 474.9 496C475 496 475.1 495.9 475.3 495.8C475.4 495.8 475.4 495.7 475.5 495.7C475.6 495.6 475.6 495.6 475.6 495.5C476.1 494.9 476.7 494.2 477.2 493.7C477.7 493.1 478.3 492.6 478.8 492.1C479.3 491.6 479.7 491.2 480.2 490.8C480.4 490.6 480.7 490.4 480.9 490.2C481.1 490 481.4 489.8 481.7 489.6C481.9 489.4 482.1 489.3 482.3 489.1C482.5 488.9 482.7 488.8 483 488.6C483.4 488.3 483.9 488 484.3 487.7C484.8 487.4 485.3 487.1 485.7 486.8C486 486.6 486.3 486.5 486.5 486.3C487 486.1 487.4 485.8 487.9 485.6C487.9 485.6 487.9 485.6 488 485.6C488.2 485.5 488.3 485.4 488.5 485.4C488.7 485.3 488.8 485.3 489 485.2C489.1 485.1 489.3 485.1 489.4 485C489.6 484.9 489.8 484.9 490 484.8H490.1C490.3 484.7 490.4 484.7 490.6 484.6C490.8 484.5 490.9 484.5 491.1 484.4C491.2 484.3 491.4 484.3 491.5 484.3C491.7 484.2 491.9 484.2 492.1 484.1C492.5 484 492.9 483.9 493.3 483.8C493.5 483.8 493.7 483.7 493.9 483.7C494.2 483.6 494.5 483.6 494.8 483.6C495.1 483.6 495.3 483.5 495.6 483.5C498.4 483.2 500.5 483.6 501.6 483.8C517.2 547.4 511 598 483.1 634C466.2 655.9 444.3 667.9 428.9 674.2C410.4 681.8 394.5 683.9 388.7 683.9C388.4 683.9 388.1 683.9 387.7 683.9C387.4 683.9 387.1 683.9 386.8 683.9C386.5 683.9 386.1 683.9 385.8 683.9C385.6 683.9 385.4 683.9 385.2 683.9C384.8 683.9 384.4 683.9 384 683.9C383.7 683.9 383.3 683.9 382.9 683.9C381.8 683.9 380.7 683.8 379.5 683.7C379.4 683.7 379.4 683.7 379.3 683.7C378.5 683.6 377.7 683.6 376.8 683.5C375.8 683.4 374.7 683.3 373.7 683.2C373.2 683.1 372.6 683.1 372.1 683C371.5 682.9 370.8 682.8 370.2 682.8C370.1 682.8 370 682.8 369.9 682.7C369.5 682.6 369.1 682.6 368.7 682.5C368.3 682.4 367.9 682.4 367.5 682.3C367.2 682.2 366.8 682.2 366.5 682.1C365.6 681.9 364.6 681.8 363.7 681.6C363.3 681.5 363 681.5 362.6 681.4C362 681.3 361.5 681.2 361 681.1C360.4 681 359.9 680.9 359.3 680.7C359 680.6 358.7 680.6 358.3 680.5C358 680.4 357.7 680.4 357.4 680.3C356.7 680.1 356.1 680 355.4 679.8C354.7 679.6 354 679.5 353.3 679.3C352.7 679.1 352.1 679 351.5 678.8C351.4 678.8 351.3 678.7 351.2 678.7C350.5 678.5 349.8 678.3 349.1 678.1C348.5 677.9 347.8 677.7 347.2 677.5C347 677.4 346.8 677.4 346.7 677.3C346.1 677.1 345.5 676.9 344.8 676.7C344.4 676.6 344.1 676.5 343.7 676.3C343.3 676.2 343 676.1 342.6 675.9C341.3 675.4 340 674.9 338.7 674.4C338.4 674.3 338 674.1 337.7 674C337.6 673.9 337.5 673.9 337.3 673.8C336.9 673.6 336.4 673.4 336 673.2C335.5 673 334.9 672.7 334.4 672.5C334 672.3 333.6 672.2 333.3 672C332.7 671.7 332.2 671.5 331.6 671.2C330.5 670.7 329.3 670.1 328.2 669.5C325.9 668.3 323.6 667 321.4 665.7C320.3 665 319.1 664.3 318 663.5C317.4 663.1 316.9 662.7 316.3 662.4C315.2 661.6 314.1 660.8 312.9 660C311.8 659.2 310.7 658.3 309.6 657.4C309.2 657 308.7 656.7 308.2 656.3C307.7 655.9 307.3 655.5 306.9 655.2C306.6 654.9 306.2 654.6 305.9 654.3C305.5 653.9 305.1 653.6 304.7 653.2C304.3 652.8 303.9 652.5 303.5 652.1C303.3 651.9 303 651.6 302.7 651.4C302.7 651.4 302.6 651.4 302.6 651.3C302.5 651.2 302.5 651.2 302.4 651.1C302.3 651 302.2 650.9 302.1 650.8C301.6 650.4 301.2 649.9 300.7 649.4C300.6 649.3 300.5 649.2 300.3 649C299.7 648.4 299.1 647.8 298.6 647.2C298.2 646.8 297.8 646.4 297.4 646C297 645.6 296.6 645.2 296.2 644.7C295.8 644.3 295.4 643.8 295.1 643.4C295 643.3 294.9 643.1 294.7 643C294.2 642.4 293.7 641.8 293.2 641.2C293.2 641.2 293.2 641.2 293.1 641.1C292.8 640.8 292.5 640.4 292.3 640.1C292.2 640 292.2 640 292.1 639.9C291.8 639.5 291.4 639 291.1 638.6C290.9 638.4 290.7 638.1 290.5 637.9C290.3 637.7 290.1 637.4 290 637.2C289.7 636.9 289.5 636.5 289.2 636.2C288.9 635.8 288.7 635.5 288.4 635.1C288.3 635 288.3 635 288.2 634.9C288.2 634.9 288.2 634.8 288.1 634.8C287.7 634.3 287.3 633.7 287 633.2C286.8 633 286.7 632.7 286.5 632.5C286.5 632.5 286.5 632.5 286.5 632.4C286.5 632.4 286.5 632.3 286.4 632.3C286 631.7 285.6 631.2 285.2 630.6C285.2 630.6 285.2 630.5 285.1 630.5C285.1 630.5 285.1 630.4 285 630.4C284.8 630.1 284.6 629.8 284.4 629.5C284.1 629 283.8 628.6 283.5 628.1C283.2 627.6 282.9 627.1 282.6 626.6C281.5 624.8 280.5 623 279.5 621.2C279.3 620.9 279.2 620.6 279 620.3C278.8 620 278.7 619.7 278.6 619.4C278.6 619.3 278.5 619.2 278.5 619.2C278.3 618.9 278.2 618.5 278 618.2C277.9 618 277.8 617.9 277.7 617.7C277.6 617.5 277.5 617.2 277.3 617C277.3 616.9 277.2 616.8 277.2 616.7C277 616.2 276.7 615.7 276.5 615.3C276.3 614.9 276.1 614.4 275.9 614V613.9C275.9 613.9 275.9 613.8 275.8 613.8C275.5 613.2 275.2 612.6 275 612V611.9C275 611.8 274.9 611.8 274.9 611.7C274.8 611.5 274.7 611.4 274.7 611.2C274.4 610.5 274.1 609.7 273.8 609C273.8 608.9 273.7 608.8 273.7 608.7C273.6 608.4 273.4 608.1 273.3 607.8C273.3 607.7 273.2 607.6 273.2 607.6C272.9 606.9 272.6 606.2 272.3 605.4C272.3 605.4 272.3 605.3 272.2 605.3V605.2C272.1 604.9 272 604.6 271.8 604.3C271.8 604.2 271.7 604.1 271.7 604.1C271.4 603.4 271.2 602.8 270.9 602.1C270.9 602 270.8 601.9 270.8 601.8C270.7 601.6 270.7 601.5 270.6 601.3C270.4 600.9 270.3 600.4 270.1 600C270.1 599.9 270 599.8 270 599.7C270 599.6 269.9 599.5 269.9 599.4C269.5 598.3 269.2 597.3 268.8 596.2C268.7 595.8 268.5 595.4 268.4 594.9C268.3 594.5 268.1 594 268 593.6C267.7 592.7 267.5 591.9 267.2 591C267.1 590.6 267 590.2 266.9 589.8C266.7 589 266.5 588.2 266.3 587.4C266.1 586.7 265.9 586 265.8 585.3C265.6 584.7 265.5 584 265.3 583.3C265.2 582.7 265 582.1 264.9 581.5C264.9 581.4 264.9 581.4 264.9 581.3C264.7 580.5 264.6 579.8 264.4 579.1C264.2 578.3 264.1 577.6 263.9 576.8C263.7 576.1 263.6 575.4 263.5 574.6C263.3 573.4 263.1 572.3 262.9 571.1C262.8 570.7 262.8 570.4 262.7 570C262.6 569.3 262.5 568.6 262.4 568C262.4 567.9 262.3 567.7 262.3 567.6C262.2 567 262.1 566.4 262 565.8C261.9 565 261.8 564.2 261.6 563.3C261.5 562.8 261.5 562.2 261.4 561.7C261.3 560.8 261.2 560 261.1 559.1C261 558.7 261 558.3 261 558C261 557.9 261 557.8 261 557.8C260.9 556.7 260.8 555.5 260.6 554.4C260.5 553.1 260.4 551.8 260.2 550.5C260.1 548.8 259.9 547.1 259.8 545.3C259.8 544.6 259.7 544 259.7 543.3C259.7 543.1 259.7 543 259.7 542.8C259.7 542.6 259.7 542.5 259.7 542.3C259.7 541.6 259.6 540.9 259.6 540.2C259.5 538.9 259.5 537.5 259.4 536.1C259.4 534.9 259.3 533.6 259.3 532.3C259.3 531.8 259.3 531.4 259.3 530.9C259.3 529.7 259.3 528.4 259.3 527.2C259.3 510 260.7 491.5 263.5 471.7C265.3 472 268.5 472.8 272.5 474.4C272 477 271.8 479.7 271.9 482.4C272 485.7 272.7 489 274.1 492.1C274.5 492.9 275.4 493.3 276.2 492.9C277 492.5 277.4 491.6 277 490.8C273.5 482.5 275.4 473 278.6 464.8C279.6 462.2 280.9 459.5 282.3 457.1C282.4 457 282.4 456.9 282.5 456.8C282.4 456.8 282.4 456.9 282.3 456.9L282.6 456.6C282.6 456.7 282.5 456.7 282.5 456.8C282.9 456.5 283.2 456.3 283.7 456.2C285.5 455.8 287.4 456.5 289.1 457.3C294.1 459.9 298.4 463.9 302.5 467.8C304.3 469.6 306.1 471.4 307.8 473.3C307.9 473.4 308 473.5 308.1 473.6C308.2 473.7 308.3 473.8 308.4 474C308.8 474.5 309.7 474.1 309.6 473.5C309.6 473.3 309.6 473.2 309.6 473C309.6 472.8 309.6 472.7 309.6 472.5C308.3 457.5 315.6 442.8 325.3 431.7C331.2 432.8 337 435.5 341.1 439.9C342.6 441.5 343.9 443.3 344.8 445.2C345.1 445.9 346.3 445.5 346 444.7C343.4 438.2 337.9 433.3 331.6 430.5C329.8 429.7 327.8 429 325.9 428.5C325.2 425.1 324.7 421.6 324.5 418.1C323.7 400.4 330.8 383.6 342.3 370.4C342.3 370.4 343.6 368.9 344.5 367.9C344.2 367.8 343.9 367.7 343.7 367.6L345.2 367.1C345.2 367.1 344.9 367.4 344.5 367.9C353.1 371.1 359.9 379 364.8 386.5C370.2 394.9 374 404.2 376.9 413.7C377.1 414.3 377.7 414.6 378.2 414.4C378.4 414.3 378.7 414.2 378.8 413.9C380.3 411.5 382 409.1 383.8 406.8C389.1 399.9 395.1 393.5 401.8 387.9C410.3 380.8 420.1 374.9 431 372.6C430.8 372.3 431.4 372.5 431 372.6C432.7 375.5 434.2 378.6 435.7 381.6C438.1 386.7 440.2 391.9 442.1 397.2C444.4 403.8 446.2 410.5 447.4 417.4C447.7 419.2 447.9 421.2 448.2 423C448.3 424 448.5 425.9 448.6 427.4C445 428.6 441.3 429.8 438 431.6C435.3 433.1 432.7 434.8 430.3 436.7C427.9 438.6 425.8 440.9 424 443.3C423.8 443.6 424.2 444.1 424.5 443.8C426.7 441.8 429.1 440 431.6 438.5C434.1 437 436.7 435.6 439.4 434.5C443 432.9 446.8 431.3 450.6 430.1C450.8 430.1 453.6 429.2 454.9 428.9C455.1 429.3 455.4 429.7 455.4 429.7C455.8 430.3 456.1 431 456.5 431.6C459.6 437.7 460.7 444.7 460.5 451.5C460.4 454.3 460.2 457.1 459.6 459.8C459.5 460.4 460.3 460.6 460.5 460C462.8 451.1 463 441.3 460 432.6C459.6 431.5 459.2 430.5 458.7 429.4C458.4 429.6 458.4 429.6 458.7 429.4C458.5 429 458.4 428.7 458.2 428.3C458.2 428.2 458.1 428.2 458.1 428.1L457.7 427.2L457.1 426.1C457.1 426 457 426 457 425.9C456.6 425.4 456 425.2 455.4 425.4C454.2 425.7 453 425.9 451.9 426.3C451.9 426.9 451.9 426.9 451.9 426.3C451.8 424.5 451.6 422.6 451.3 420.8C451.1 419 450.8 417.1 450.4 415.3C450.1 413.5 449.7 411.7 449.3 409.9C448.9 408.1 448.4 406.3 447.9 404.5C447.9 404.4 447.8 404.2 447.8 404C447.6 403.3 447.4 402.6 447.2 401.9C447.2 401.8 447.2 401.8 447.1 401.7C446.9 401 446.7 400.3 446.4 399.6C446.3 399.4 446.3 399.2 446.2 399C446 398.3 445.7 397.5 445.4 396.8C444.4 394 443.4 391.3 442.3 388.6C442.1 388.1 441.9 387.6 441.7 387.1C441.6 386.9 441.6 386.8 441.5 386.6C441.4 386.3 441.3 386.1 441.2 385.8C440.9 385.1 440.6 384.4 440.3 383.7C439.3 381.6 438 378.8 436.9 376.8C436 375.1 435.1 373.4 434.1 371.7C433.8 371.1 433.4 370.6 433.1 370C433.1 369.9 433 369.9 433 369.8C432.9 369.7 432.9 369.7 432.9 369.7L432.8 369.6C432.7 369.5 432.7 369.5 432.6 369.4C432.3 369.2 431.9 369.2 431.5 369.2C423.7 370.8 416.3 374.2 409.5 378.7C408.9 376.5 407.4 371.4 405.2 365.9C401.3 356 397 350.1 392.7 348.1C390.4 347 388 347.1 385.8 348.3C374.8 353.9 364 371.1 360.9 376.4C360.4 377.2 360.4 377.2 360.9 376.4C357.3 372.2 353.1 368.6 348.3 366C348.1 365.9 347.9 365.8 347.6 365.7C347.1 365.5 346.7 365.3 346.2 365.1C346 365 345.7 364.9 345.5 364.8C345.4 364.8 345.3 364.7 345.3 364.7C345.1 364.6 345 364.6 344.8 364.6C344.7 364.6 344.6 364.5 344.5 364.5C343.9 364.4 343.3 364.6 343 365C341.5 366.7 339.4 369 337.8 370.9C337.6 371.2 337.4 371.4 337.2 371.7C337 371.9 336.8 372.2 336.6 372.4C336.4 372.6 336.2 372.9 336 373.1C335.7 373.5 335.4 373.9 335.1 374.3C334 375.7 333 377.2 332 378.8C331.8 379.2 331.5 379.6 331.3 380C330.7 381 330.2 382 329.6 383C329.4 383.3 329.2 383.6 329.1 384C328.9 384.4 328.7 384.9 328.4 385.3C328.2 385.7 328 386.2 327.8 386.6C327.3 387.6 326.8 388.7 326.4 389.7C326.2 390.1 326.1 390.5 325.9 390.9C325.7 391.5 325.4 392.1 325.2 392.7C325 393.1 324.9 393.6 324.7 394C324.5 394.6 324.3 395.2 324.1 395.8C323.9 396.4 323.8 396.9 323.6 397.5C322.8 400.3 322.2 403.2 321.8 406.1C321.6 407.7 321.4 409.4 321.3 411C321.3 411.6 321.2 412.1 321.2 412.7C321.2 413.1 321.2 413.4 321.2 413.8C321.2 415.3 321.2 416.7 321.3 418.2C321.3 418.4 321.3 418.7 321.4 418.9V419C321.4 419.4 321.5 419.9 321.5 420.3C321.6 421 321.6 421.7 321.7 422.4C322.1 423.2 322.4 423.6 322.5 423.8C322.4 423.6 322.1 423.1 321.7 422.4C319.7 419 317.5 415.5 315.6 413.6C310.5 408.6 306.2 406.6 306 406.5C305.5 406.3 304.8 406.3 304.4 406.7C294.8 413.9 289.9 429.9 289.9 454.4C291 454.9 292.1 455.5 293.1 456.2C292 455.5 291 454.9 289.9 454.4C287.7 453.4 285.5 452.8 283.4 453.2C282.4 453.5 281.3 453.9 280.6 454.8C280.3 455.2 280.1 455.6 279.9 456C279.3 457 278.8 458 278.2 459C276.2 462.8 274.6 466.8 273.5 471C273.8 471.1 274.1 471.2 274.4 471.3C275.2 471.6 275.6 472.6 275.3 473.4C275 474.2 274 474.6 273.2 474.3C273.1 474.3 273.1 474.3 273 474.2C273.1 474.2 273.1 474.2 273.2 474.3C274 474.6 275 474.3 275.3 473.4C275.6 472.6 275.3 471.6 274.4 471.3C274.1 471.2 273.8 471.1 273.5 471C273.4 471.2 273.4 471.4 273.4 471.6C273.5 471.4 273.5 471.2 273.5 471C273 470.8 272.5 470.6 272.1 470.4C268.3 469 265.3 468.4 263.8 468.1C263.1 468 262.7 467.9 262.7 467.9C261.9 467.8 261.1 468.4 260.9 469.3C253.2 522.4 255.5 566.4 267.6 600.9C273.6 618.1 282 633 292.9 645.4C294.7 647.5 296.6 649.5 298.5 651.4C298.7 651.7 299 651.9 299.3 652.2C332 684.1 373.9 687 388 687H389C389.1 687 389.3 687 389.4 687C396.2 686.8 411.9 684.6 430.4 677C453 667.8 472.2 653.5 485.9 635.8C499 618.9 507.5 598.5 511.2 575.3C515 548.5 512.8 517.1 504.1 482.3ZM377.5 413.2C378 413.3 378.6 413.3 378.6 413.3L377.5 413.2ZM362.7 379.3C364.5 376.3 376 357 386.9 351.4C388.3 350.7 389.6 350.7 391 351.3C398.3 354.6 404.5 373.8 406.3 380.9V381C395 389.2 385.4 400.3 377.9 411.3C374.5 400.4 369.8 388.7 362.7 379.3C362.6 379.4 362.6 379.5 362.5 379.6C362.5 379.5 362.6 379.4 362.7 379.3ZM292.6 456.5C292.4 433.2 296.7 417.2 305 410.2C306.4 411 309.4 412.9 312.8 416.2C314.9 418.3 318.3 423.7 321.8 430.7C313 441.9 306.5 455.9 307.3 470.3C307.3 470.7 307.3 470.7 307.3 470.3C306.2 469 305 467.7 303.8 466.4C301.2 463.7 297 459.5 292.6 456.5ZM290.7 458.1C290 458 289.5 457.4 289.4 456.7C289.5 457.4 290 457.9 290.7 458.1Z" fill="#CC4502"/>
<path opacity="0.5" d="M510.6 575.7C506.9 598.9 498.4 619.3 485.3 636.2C471.6 654 452.4 668.2 429.8 677.4C411.3 685 395.6 687.2 388.8 687.4C388.7 687.4 388.5 687.4 388.4 687.4H387.4C373.3 687.4 331.4 684.5 298.7 652.6C298.4 652.4 298.2 652.1 297.9 651.8C296.3 650.2 294.8 648.5 293.3 646.8C282.4 634.4 274 619.5 268 602.3L265.9 591.6C266.4 592.6 267 593.7 267.6 594.8C257.7 561.4 256.2 519.9 263.4 470.6C263.5 470.1 263.8 469.6 264.3 469.4C264.6 469.3 264.9 469.2 265.2 469.2C265.3 469.2 267.8 469.5 271.7 470.7C272.2 470.8 272.7 471 273.2 471.2C273.6 471.3 274 471.5 274.4 471.6C275 471.8 275.6 472 276.2 472.3C276.6 470.8 277 469.4 277.6 467.9C277.6 467.8 277.7 467.7 277.7 467.6C278.6 465.1 279.7 462.6 280.9 460.2C280.9 460.1 280.9 460.1 281 460.1C281 460.3 278.6 466.4 279.1 465.5C279.1 465.5 275.1 488.5 292.1 509.5C294.9 513 278.1 498.5 269.1 498.5C255.7 498.5 258.1 650.5 367.5 653.2C375.1 653.5 425.8 649.4 457.1 618.1C460.5 614.7 463.5 611.3 466.1 608C469 604.3 471.5 600.6 473.5 596.9C481.6 582.7 484.1 569.2 486.1 557.1C487.9 546.1 460.3 560.6 464.5 554C477.5 534 464 495.7 464 495.7C442.6 495.7 442.7 499.5 441.9 500.5C462.5 466.1 459.8 457.1 460.3 441.2C460.3 441.2 456.1 430.9 456.1 430.6C456.1 430.6 456.6 429.3 457.5 427.5C457.5 427.5 458.4 429.3 458.5 429.6C465.5 423.5 470.4 420.8 474.1 420.9C474.5 420.9 474.9 421.1 475.2 421.4C475.4 421.6 480.1 426.8 484.3 437C484.3 437.1 484.4 437.2 484.4 437.2C488.1 446.3 491.8 461.3 489.6 481.4C490 481.3 490.4 481.2 490.7 481.1C490.7 481.6 490.6 482 490.6 482.4C492.9 481.6 495 481.3 496.8 481.2C497.8 481.1 498.7 481.1 499.6 481.2C502.4 481.3 504.1 481.9 504.3 482V482.1C512.8 517.1 515 548.5 510.6 575.7Z" fill="#CC4502"/>
<path opacity="0.5" d="M293.8 430.1C299.7 451.1 313.6 447.6 313.6 447.6C313.6 447.6 306.8 456 307.8 471.6C308 475.3 290 456 290 456" fill="#CC4502"/>
<path opacity="0.5" d="M364.8 382.1C364.8 382.1 375.8 399.3 397.8 388L377.9 411.2L364.8 382.1Z" fill="#CC4502"/>
<path d="M333.2 597C334.2 603.6 340 606.6 343.3 606.1C346.5 605.6 345.9 601.9 345 595.2C344 588.6 337.7 586.2 334.5 586.7C331.2 587.2 332.2 590.4 333.2 597Z" fill="black"/>
<path d="M321.2 551.8C324.458 551.8 327.1 546.383 327.1 539.7C327.1 533.017 324.458 527.6 321.2 527.6C317.941 527.6 315.3 533.017 315.3 539.7C315.3 546.383 317.941 551.8 321.2 551.8Z" fill="black"/>
<path d="M375.6 564.2C378.859 564.2 381.5 558.783 381.5 552.1C381.5 545.417 378.859 540 375.6 540C372.342 540 369.7 545.417 369.7 552.1C369.7 558.783 372.342 564.2 375.6 564.2Z" fill="black"/>
<path d="M301.7 525.5C300.9 510.4 308.7 497.3 322.9 491.5C332.8 487.3 339.3 501.3 329.8 506.2C326.9 507.4 323.5 507 320.7 508.5C313.7 511.3 309.2 518.5 307.4 525.6C306.8 529.1 302 528.9 301.7 525.5Z" fill="black"/>
<path d="M398.3 528.7C388.4 538.4 375.8 536.8 367.2 526.2C360.1 517.6 372 506.9 379.8 514.9C382.7 518.1 381.5 523.1 385.7 525.3C388.5 526.9 393 526.5 396.1 525.5C398.1 524.7 399.8 527.2 398.3 528.7Z" fill="black"/>
<path d="M376.1 550.7C377.592 550.7 378.8 548.909 378.8 546.7C378.8 544.491 377.592 542.7 376.1 542.7C374.609 542.7 373.4 544.491 373.4 546.7C373.4 548.909 374.609 550.7 376.1 550.7Z" fill="#FFF3CC"/>
<path d="M321.7 538.3C323.191 538.3 324.4 536.509 324.4 534.3C324.4 532.091 323.191 530.3 321.7 530.3C320.209 530.3 319 532.091 319 534.3C319 536.509 320.209 538.3 321.7 538.3Z" fill="#FFF3CC"/>
<path d="M226.9 584.4V721.7L172.5 746V602.7L226.9 584.4Z" fill="#FFF3CC"/>
<path d="M129.9 560.1L172.5 602.7V746L129.9 704.2V560.1Z" fill="#FF9A68"/>
<path d="M269.4 765.9L226.9 721.7V584.4L269.4 626.4V765.9Z" fill="#FF9A68"/>
<path d="M323.8 607.5V740.6L269.4 765.9V626.4L323.8 607.5Z" fill="#FFF3CC"/>
<path d="M172.5 602.5L226.9 584.1L269.4 626.2L323.8 607.3V740.4L269.4 765.7L226.9 721.5L172.5 745.8L129.9 704V559.9L172.5 602.5Z" stroke="#CC4502" stroke-width="6" stroke-miterlimit="10"/>
<path d="M273.2 257.9C282.6 256.6 291.3 257.8 299.3 261.7C307.3 265.6 313.1 271.2 316.9 278.5C320.6 285.8 321.6 293.5 319.8 301.6C318.9 305.1 317.4 308.9 315.3 312.9C313.1 316.9 311 320.5 308.8 323.6C306.7 326.7 304.7 329.9 303 333C301.3 336.2 300.4 339.2 300.3 342.2C300.2 345.2 301.3 348 303.4 350.6L301.6 351.8C298.5 348 296.3 344.7 295.1 342.1C293.9 339.5 293.2 336.8 293.1 334C293 331.2 293.3 328.7 294 326.5C294.8 324.3 295.6 321.8 296.4 318.8C297.3 315.9 298 313.1 298.7 310.4C299.4 307.7 299.7 304.4 299.5 300.5C299.4 296.6 298.6 292.4 297.3 288.1C295 281.7 291.9 276.5 287.9 272.5C283.9 268.5 279.4 266.1 274.3 265.4C269.3 264.6 264.6 264.8 260.3 265.9C256 267.1 252.3 269.6 249.4 273.5C246.5 277.4 245.1 282.1 245.3 287.6C251.1 282.8 256.5 282.1 261.6 285.4C265.6 288.2 267.7 292.2 267.8 297.4C267.8 301.6 266.1 304.8 262.9 306.9C261.6 307.8 260.3 308.4 258.9 308.7C257.5 309 256.2 309.1 254.8 308.8C253.5 308.5 252.2 308 251 307.3C249.8 306.6 248.7 305.6 247.6 304.5C246.6 303.4 245.7 302.1 244.9 300.5C242.4 295.9 241.4 291.1 242.2 286.2C242.9 281.3 244.8 276.9 247.8 273C250.8 269.1 254.5 265.8 259 263.1C263.6 260.3 268.3 258.6 273.2 257.9ZM304.7 354.6C306.5 353.4 308.4 353.1 310.5 353.6C312.6 354.1 314.2 355.2 315.4 357C316.6 358.8 317 360.7 316.7 362.8C316.4 364.9 315.3 366.5 313.6 367.7C312.5 368.4 311.3 368.8 309.9 368.8C308.6 368.8 307.3 368.5 306.1 367.9C304.9 367.3 303.9 366.4 303.1 365.2C301.9 363.4 301.5 361.5 301.8 359.4C302 357.4 303 355.8 304.7 354.6Z" fill="#CC4502"/>
<path d="M537.8 207.8C546.9 219.1 552 231.6 553.1 245C554.2 258.5 551.4 270.5 544.8 281.1C538.1 291.7 528.8 298.9 516.7 302.8C511.4 304.4 505.3 305.4 498.4 305.6C491.5 305.9 485.1 305.8 479.4 305.4C473.6 305 468 304.9 462.5 305.1C457 305.3 452.3 306.5 448.3 308.8C444.3 311 441.4 314.6 439.7 319.4L436.7 318C439.3 310.9 441.9 305.6 444.4 302C446.9 298.4 449.9 295.4 453.5 293C457.1 290.7 460.6 289.1 464 288.4C467.5 287.7 471.4 286.8 475.9 285.6C480.4 284.5 484.7 283.3 488.8 282.1C492.9 280.9 497.4 278.7 502.5 275.5C507.5 272.2 512.4 268.1 517.1 263C523.7 255 528.1 246.9 530.2 238.5C532.3 230.2 531.9 222.4 529 215.2C526.1 208 522.3 202 517.4 197.2C512.5 192.4 506.4 189.6 499 188.8C491.6 188 484.4 189.9 477.3 194.4C488.1 198.2 493.3 204.8 492.8 214C492.2 221.5 488.6 227.3 481.9 231.4C476.4 234.6 471 234.9 465.6 232.4C463.4 231.4 461.6 230.1 460.1 228.5C458.6 226.9 457.5 225.2 456.8 223.2C456.1 221.3 455.8 219.2 455.8 217C455.8 214.8 456.1 212.6 456.8 210.4C457.5 208.2 458.5 206 459.9 203.8C464 196.9 469.5 192 476.6 189.1C483.6 186.2 490.9 185.3 498.3 186.1C505.7 187 512.9 189.3 520 193.1C527.1 197.2 533 202 537.8 207.8ZM435.3 324.5C438.2 325.9 440.2 328.1 441.1 331.3C442.1 334.4 441.9 337.4 440.5 340.3C439.1 343.2 436.9 345.3 433.9 346.5C430.9 347.7 427.9 347.6 425 346.2C423.2 345.3 421.7 344 420.6 342.3C419.5 340.6 418.9 338.7 418.8 336.6C418.7 334.5 419.1 332.5 420 330.5C421.4 327.6 423.6 325.5 426.6 324.3C429.6 323.1 432.5 323.2 435.3 324.5Z" fill="#CC4502"/>
<path opacity="0.25" d="M126.5 335.1C173.776 335.1 212.1 325.071 212.1 312.7C212.1 300.329 173.776 290.3 126.5 290.3C79.2248 290.3 40.9004 300.329 40.9004 312.7C40.9004 325.071 79.2248 335.1 126.5 335.1Z" fill="#00478F"/>
<path d="M4.5 162.3C4.5 195 31 221.4 63.6 221.4C75.8 221.4 87.1 217.7 96.5 211.4C100.6 223.9 110.2 233.8 122.6 238.2C127.1 239.8 131.9 240.7 136.9 240.7C156.2 240.7 172.6 227.8 177.7 210.1C178.7 210.2 179.7 210.2 180.8 210.2C213.5 210.2 239.9 183.7 239.9 151.1C239.9 124.8 222.8 102.5 199 94.8C196.8 54.4 163.4 22.3 122.4 22.3C80.1 22.3 45.7 56.6 45.7 99C45.7 101.3 45.8 103.6 46 105.9C22 113.2 4.5 135.7 4.5 162.3Z" fill="white" stroke="#5CADFF" stroke-width="9" stroke-miterlimit="10" stroke-linecap="round" stroke-linejoin="round"/>
<path d="M170.6 313H128.1H85.5996" stroke="#00478F" stroke-width="9" stroke-miterlimit="10" stroke-linecap="round"/>
<path d="M128.1 199.7V313" stroke="#00478F" stroke-width="9" stroke-miterlimit="10" stroke-linecap="round" stroke-linejoin="round"/>
<path d="M127.1 199.9L79.5 152.3" stroke="#00478F" stroke-width="9" stroke-miterlimit="10" stroke-linecap="round"/>
<path d="M129.2 199.9L176.8 152.3" stroke="#00478F" stroke-width="9" stroke-miterlimit="10" stroke-linecap="round"/>
<path opacity="0.5" d="M4.5 162.3C4.5 195 31 221.4 63.6 221.4C75.8 221.4 87.1 217.7 96.5 211.4C100.6 223.9 107.2 237.8 119.6 242.2C124.1 243.8 128.9 244.7 133.9 244.7C153.2 244.7 172.6 227.8 177.7 210.1C178.7 210.2 179.7 210.2 180.8 210.2C213.5 210.2 239.9 183.7 239.9 151.1C239.9 124.8 222.8 102.5 199 94.8C196.8 54.4 163.4 22.3 122.4 22.3C80.1 22.3 45.7 56.6 45.7 99C45.7 101.3 45.8 103.6 46 105.9C22 113.2 4.5 135.7 4.5 162.3Z" fill="#5CADFF"/>
<path opacity="0.25" d="M548.9 131.9C567.07 131.9 581.8 128.05 581.8 123.3C581.8 118.55 567.07 114.7 548.9 114.7C530.73 114.7 516 118.55 516 123.3C516 128.05 530.73 131.9 548.9 131.9Z" fill="#00478F"/>
<path d="M501.9 65.3C501.9 77.9 512.1 88.1 524.7 88.1C529.4 88.1 533.8 86.7 537.4 84.2C539 89 542.7 92.8 547.4 94.5C549.1 95.1 551 95.4 552.9 95.4C560.3 95.4 566.6 90.4 568.6 83.6C569 83.6 569.4 83.6 569.8 83.6C582.4 83.6 592.6 73.3999 592.6 60.7999C592.6 50.7 586 42.0999 576.9 39.0999C576.1 23.5999 563.2 11.2 547.4 11.2C531.1 11.2 517.9 24.4 517.9 40.7C517.9 41.6 517.9 42.5 518 43.2999C508.6 46.5 501.9 55.1 501.9 65.3Z" fill="white" stroke="#5CADFF" stroke-width="6" stroke-miterlimit="10" stroke-linecap="round" stroke-linejoin="round"/>
<path d="M565.801 123.4H549.501H533.101" stroke="#00478F" stroke-width="6" stroke-miterlimit="10" stroke-linecap="round"/>
<path d="M549.5 79.7V123.4" stroke="#00478F" stroke-width="6" stroke-miterlimit="10" stroke-linecap="round" stroke-linejoin="round"/>
<path d="M549.101 79.8L530.801 61.5" stroke="#00478F" stroke-width="6" stroke-miterlimit="10" stroke-linecap="round"/>
<path d="M549.9 79.8L568.2 61.5" stroke="#00478F" stroke-width="6" stroke-miterlimit="10" stroke-linecap="round"/>
<path opacity="0.5" d="M501.9 65.3C501.9 77.9 512.1 88.1 524.7 88.1C529.4 88.1 533.8 86.7 537.4 84.2C539 89 542.7 95.8 547.4 97.5C549.1 98.1 551 98.4 552.9 98.4C560.3 98.4 566.6 90.4 568.6 83.6C569 83.6 569.4 83.6 569.8 83.6C582.4 83.6 592.6 73.3999 592.6 60.7999C592.6 50.7 586 42.0999 576.9 39.0999C576.1 23.5999 563.2 11.2 547.4 11.2C531.1 11.2 517.9 24.4 517.9 40.7C517.9 41.6 517.9 42.5 518 43.2999C508.6 46.5 501.9 55.1 501.9 65.3Z" fill="#5CADFF"/>
<path opacity="0.25" d="M375.5 186.8C410.073 186.8 438.1 180.487 438.1 172.7C438.1 164.913 410.073 158.6 375.5 158.6C340.927 158.6 312.9 164.913 312.9 172.7C312.9 180.487 340.927 186.8 375.5 186.8Z" fill="#00478F"/>
<path d="M375.2 145.9C414.247 145.9 445.9 114.247 445.9 75.2C445.9 36.1535 414.247 4.5 375.2 4.5C336.153 4.5 304.5 36.1535 304.5 75.2C304.5 114.247 336.153 145.9 375.2 145.9Z" fill="white" stroke="#5CADFF" stroke-width="9" stroke-miterlimit="10" stroke-linecap="round"/>
<path d="M395.3 172.5H375.3H355.4" stroke="#00478F" stroke-width="7" stroke-miterlimit="10" stroke-linecap="round"/>
<path d="M375.3 172.5V35.5" stroke="#00478F" stroke-width="7" stroke-miterlimit="10" stroke-linecap="round"/>
<path d="M375.5 82.9L400.3 58" stroke="#00478F" stroke-width="7" stroke-miterlimit="10" stroke-linecap="round"/>
<path d="M375.5 123.1L396.1 102.4" stroke="#00478F" stroke-width="7" stroke-miterlimit="10" stroke-linecap="round"/>
<path d="M375.3 104.8L343.5 73" stroke="#00478F" stroke-width="7" stroke-miterlimit="10" stroke-linecap="round"/>
<path opacity="0.5" d="M304.5 75.2C304.5 114.2 335.8 150.6 374.9 150.6C414 150.6 445.9 114.3 445.9 75.2C445.9 36.1 414.2 4.5 375.2 4.5C336.2 4.5 304.5 36.2 304.5 75.2Z" fill="#5CADFF"/>
<path opacity="0.5" d="M419.4 446.6C419.5 446.5 419.7 446.4 419.9 446.2C419.7 446.4 419.5 446.6 419.4 446.6Z" fill="#CC4502"/>
<path opacity="0.5" d="M456.5 426.4C454.9 426.6 453.2 426.9 451.5 427.5C450.5 427.8 449.4 428.2 448.3 428.6C439.4 432.1 425.4 441.5 425.4 441.5C426.5 440.5 427.5 439.5 428.5 438.4C437.6 427.8 443.8 419.8 441.7 397.6C441.4 394.5 442 391.6 442 389C443.1 391.7 444.1 394.4 445.1 397.2C445.4 397.9 445.6 398.7 445.9 399.4C446 399.6 446 399.8 446.1 400C446.3 400.7 446.5 401.4 446.8 402.1C446.8 402.2 446.8 402.2 446.9 402.3C447.1 403 447.3 403.7 447.5 404.4C447.5 404.6 447.6 404.7 447.6 404.9C448.1 406.7 448.6 408.5 449 410.3C449.4 412.1 449.8 413.9 450.1 415.7C450.4 417.5 450.7 419.3 451 421.2C451.2 423 451.4 424.9 451.6 426.7C452.7 426.4 453.9 426.1 455.1 425.8C455.6 425.7 456.2 425.9 456.5 426.4Z" fill="#CC4502"/>
<path d="M511.4 554.8C511.4 555.5 511.3 557 511.3 557.7C511.2 558.8 510.9 560.4 510.8 561.6C510.7 562.6 509.2 562.4 509.3 561.4V561.3L509.5 559.4C509.7 558 509.6 556.2 509.6 554.7C509.6 554.1 509.4 552.5 509.3 551.9C508.5 545.8 505.9 539.9 501.8 535.5C501.6 535.3 501.4 535 501.1 534.8C500.9 534.6 501.4 534.8 501.1 534.8C495.2 535.8 489.4 538.1 484.3 541.3C482.5 542.4 480.8 543.7 479.2 545.1C479 545.3 478.7 545.3 478.5 545.1C478.3 544.9 478.3 544.6 478.5 544.4C481.6 541.3 485.1 538.6 488.9 536.4C491.8 534.8 494.9 533.4 498 532.4C499.1 532.1 500.1 531.8 501.3 531.5C501.8 531.4 502.2 531.5 502.6 531.9C504.7 534 507.9 539 509.1 542.2C510.3 545.3 511 548.5 511.3 551.8C511.4 552.5 511.4 554.2 511.4 554.8Z" fill="#CC4502"/>
<path opacity="0.5" d="M432.9 466.9C432.9 467.6 432.8 469.1 432.8 469.8C432.7 470.9 432.4 472.5 432.3 473.7C432.2 474.7 430.7 474.5 430.8 473.5V473.4L431 471.5C431.2 470.1 431.1 468.3 431.1 466.8C431.1 466.2 430.9 464.6 430.8 464C430 457.9 427.4 452 423.3 447.6C423.1 447.4 422.9 447.1 422.6 446.9C422.4 446.7 422.9 446.9 422.6 446.9C416.7 447.9 410.9 450.2 405.8 453.4C404 454.5 402.3 455.8 400.7 457.2C400.5 457.4 400.2 457.4 400 457.2C399.8 457 399.8 456.7 400 456.5C403.1 453.4 406.6 450.7 410.4 448.5C413.3 446.9 416.4 445.5 419.5 444.5C420.6 444.2 421.6 443.9 422.8 443.6C423.3 443.5 423.7 443.6 424.1 444C426.2 446.1 429.4 451.1 430.6 454.3C431.8 457.4 432.5 460.6 432.8 463.9C432.8 464.6 432.9 466.3 432.9 466.9Z" fill="#CC4502"/>
<path opacity="0.5" d="M463.2 604.3C463.2 605 463.1 606.5 463.1 607.2C463 608.3 462.7 609.9 462.6 611.1C462.5 612.1 461 611.9 461.1 610.9V610.8L461.3 608.9C461.5 607.5 461.4 605.7 461.4 604.2C461.4 603.6 461.2 602 461.1 601.4C460.3 595.3 457.7 589.4 453.6 585C453.4 584.8 452.7 584.1 452.9 584.3C447 585.3 441.2 587.6 436.1 590.8C434.3 591.9 432.6 593.2 431 594.6C430.8 594.8 430.5 594.8 430.3 594.6C430.1 594.4 430.1 594.1 430.3 593.9C433.4 590.8 436.9 588.1 440.7 585.9C443.6 584.3 446.7 582.9 449.8 581.9C450.9 581.6 451.9 581.3 453.1 581C453.6 580.9 454 581 454.4 581.4C456.5 583.5 459.7 588.5 460.9 591.7C462.1 594.8 462.8 598 463.1 601.3C463.1 602 463.2 603.7 463.2 604.3Z" fill="#CC4502"/>
<path opacity="0.5" d="M393.1 433.5C393.3 434.2 393.7 435.6 393.9 436.3C394.2 437.4 394.4 439 394.6 440.1C394.8 441.1 393.3 441.3 393.1 440.4V440.3L392.7 438.5C392.4 437.1 391.8 435.4 391.4 434C391.2 433.5 390.5 432 390.3 431.4C387.6 425.9 383.4 421 378.1 418.1C377.8 417.9 377.5 417.8 377.2 417.7C377 417.6 377.4 417.6 377.2 417.7C371.9 420.5 367.1 424.4 363.2 429C361.8 430.6 360.6 432.4 359.5 434.2C359.4 434.4 359.1 434.5 358.9 434.4C358.7 434.3 358.6 434 358.7 433.8C360.7 429.9 363.2 426.2 366.2 423C368.4 420.6 371 418.3 373.6 416.4C374.5 415.7 375.4 415.1 376.5 414.5C376.9 414.3 377.4 414.3 377.8 414.5C380.5 415.9 385.1 419.6 387.2 422.3C389.3 424.9 391 427.8 392.2 430.8C392.3 431.3 392.9 433 393.1 433.5Z" fill="#CC4502"/>
</g>
<defs>
<clipPath id="clip0_4006_1559">
<rect width="856.1" height="826.6" fill="white"/>
</clipPath>
</defs>
</svg>
